<?xml version="1.0" encoding="UTF-8"?><!DOCTYPE svg PUBLIC "-//W3C//DTD SVG 1.1//EN" "http://www.w3.org/Graphics/SVG/1.1/DTD/svg11.dtd"><svg xmlns="http://www.w3.org/2000/svg" xmlns:xlink="http://www.w3.org/1999/xlink"><defs/><symbol id="buttonArrow" viewBox="0 0 24 24">
    <path d="M11.4697 5.46967C11.7626 5.17678 12.2374 5.17678 12.5303 5.46967L18.5303 11.4697C18.8232 11.7626 18.8232 12.2374 18.5303 12.5303L12.5303 18.5303C12.2374 18.8232 11.7626 18.8232 11.4697 18.5303C11.1768 18.2374 11.1768 17.7626 11.4697 17.4697L16.1893 12.75H6C5.58579 12.75 5.25 12.4142 5.25 12C5.25 11.5858 5.58579 11.25 6 11.25H16.1893L11.4697 6.53033C11.1768 6.23744 11.1768 5.76256 11.4697 5.46967Z"/>
</symbol><symbol id="Call" viewBox="0 0 24 24">
    <path d="M6.5325 3.61307C6.21421 3.83674 5.73913 4.23444 5.16024 4.91438C4.48981 5.70184 4.08498 6.63876 4.10421 7.58059C4.14871 9.76028 5.15893 12.8115 8.17459 15.8272C11.2612 18.9138 14.3229 19.9083 16.4923 19.9154C17.3875 19.9183 18.2749 19.529 19.0295 18.8935C19.7348 18.2994 20.15 17.8033 20.3836 17.471C20.3777 17.4582 20.3641 17.4364 20.3347 17.4129L17.0179 14.7594C16.9184 14.6798 16.775 14.6878 16.685 14.7779L16.052 15.4108C15.1895 16.2733 13.803 16.5045 12.7311 15.7711C10.8957 14.5154 9.42306 13.0092 8.22991 11.2697C7.49172 10.1934 7.72445 8.79816 8.59617 7.93396L9.22085 7.31467C9.31161 7.2247 9.3199 7.08075 9.24006 6.98096L6.57993 3.6558C6.56428 3.63624 6.54884 3.6234 6.53671 3.61564C6.53523 3.6147 6.53383 3.61384 6.5325 3.61307ZM4.01811 3.94199C4.68646 3.15697 5.264 2.66771 5.6962 2.36754C6.43833 1.85211 7.30361 2.15923 7.75124 2.71876L10.4114 6.04391C10.9702 6.74248 10.9122 7.75008 10.2769 8.37992L9.65223 8.9992C9.23923 9.40864 9.18185 10.0056 9.4669 10.4212C10.5592 12.0137 11.9013 13.3859 13.5781 14.5331C13.9903 14.8151 14.5824 14.7591 14.9913 14.3501L15.6243 13.7172C16.2548 13.0867 17.2586 13.0311 17.9549 13.5881L21.2718 16.2416C21.8409 16.6969 22.1415 17.5735 21.622 18.3176C21.3114 18.7624 20.8047 19.3594 19.9958 20.0407C19.0433 20.8429 17.8239 21.4198 16.4874 21.4154C13.8678 21.4068 10.4399 20.2138 7.11393 16.8879C3.85533 13.6293 2.65777 10.2196 2.60452 7.61121C2.57603 6.21564 3.17298 4.93464 4.01811 3.94199Z"/>
</symbol><symbol id="checkmark" viewBox="0 0 16 16">
    <path d="M13.7574 3.19771C14.0624 3.47795 14.0825 3.9524 13.8023 4.25742L6.91167 11.7574C6.77168 11.9098 6.57497 11.9976 6.36808 12C6.16119 12.0024 5.96249 11.9192 5.81901 11.7701L2.20964 8.02011C1.92239 7.72167 1.93146 7.24688 2.2299 6.95964C2.52833 6.67239 3.00312 6.68147 3.29037 6.9799L6.34667 10.1553L12.6977 3.24259C12.9779 2.93756 13.4524 2.91747 13.7574 3.19771Z"/>
</symbol><symbol id="cross" viewBox="0 0 32 32">
    <path d="M24.7071 8.70711C25.0976 8.31658 25.0976 7.68342 24.7071 7.29289C24.3166 6.90237 23.6834 6.90237 23.2929 7.29289L16 14.5858L8.70711 7.29289C8.31658 6.90237 7.68342 6.90237 7.29289 7.29289C6.90237 7.68342 6.90237 8.31658 7.29289 8.70711L14.5858 16L7.29289 23.2929C6.90237 23.6834 6.90237 24.3166 7.29289 24.7071C7.68342 25.0976 8.31658 25.0976 8.70711 24.7071L16 17.4142L23.2929 24.7071C23.6834 25.0976 24.3166 25.0976 24.7071 24.7071C25.0976 24.3166 25.0976 23.6834 24.7071 23.2929L17.4142 16L24.7071 8.70711Z"/>
</symbol><symbol id="locIcon" viewBox="0 0 20 20">
    <path fill-rule="evenodd" d="M10 10C11.1046 10 12 9.10457 12 8C12 6.89543 11.1046 6 10 6C8.89543 6 8 6.89543 8 8C8 9.10457 8.89543 10 10 10ZM10 11.5C11.933 11.5 13.5 9.933 13.5 8C13.5 6.067 11.933 4.5 10 4.5C8.067 4.5 6.5 6.067 6.5 8C6.5 9.933 8.067 11.5 10 11.5Z"/>
    <path fill-rule="evenodd" d="M14.1185 14.1287C15.4819 12.3107 16.5 10.159 16.5 7.80488C16.5 4.35749 13.625 1.5 10 1.5C6.37502 1.5 3.5 4.35749 3.5 7.80488C3.5 10.159 4.51813 12.3107 5.88146 14.1287C7.24149 15.9424 8.86713 17.3181 9.88325 18.0846C9.92743 18.118 9.96753 18.1275 10 18.1275C10.0325 18.1275 10.0726 18.118 10.1168 18.0846C11.1329 17.3181 12.7585 15.9424 14.1185 14.1287ZM11.0201 19.2821C13.1763 17.6555 18 13.392 18 7.80488C18 3.49436 14.4183 0 10 0C5.58172 0 2 3.49436 2 7.80488C2 13.392 6.82374 17.6555 8.97986 19.2821C9.59039 19.7427 10.4096 19.7427 11.0201 19.2821Z"/>
</symbol><symbol id="Mail" viewBox="0 0 24 24">
    <path fill-rule="evenodd" d="M5 5.5H19C19.6497 5.5 20.203 5.91311 20.4114 6.49099L13.2481 11.2666C12.4923 11.7704 11.5077 11.7704 10.7519 11.2666L3.58857 6.49099C3.79701 5.91311 4.35026 5.5 5 5.5ZM3.5 8.23472V17C3.5 17.8284 4.17157 18.5 5 18.5H19C19.8284 18.5 20.5 17.8284 20.5 17V8.23472L14.0801 12.5146C12.8205 13.3544 11.1795 13.3544 9.91987 12.5146L3.5 8.23472ZM2 7C2 5.34315 3.34315 4 5 4H19C20.6569 4 22 5.34315 22 7V17C22 18.6569 20.6569 20 19 20H5C3.34315 20 2 18.6569 2 17V7Z"/>
</symbol><symbol id="signIn" viewBox="0 0 24 24">
<path d="M6.75 2.25C4.67893 2.25 3 3.92893 3 6V18C3 20.0711 4.67893 21.75 6.75 21.75H12.75C14.8211 21.75 16.5 20.0711 16.5 18V17C16.5 16.5858 16.1642 16.25 15.75 16.25C15.3358 16.25 15 16.5858 15 17V18C15 19.2426 13.9926 20.25 12.75 20.25H6.75C5.50736 20.25 4.5 19.2426 4.5 18V6C4.5 4.75736 5.50736 3.75 6.75 3.75H12.75C13.9926 3.75 15 4.75736 15 6V7C15 7.41421 15.3358 7.75 15.75 7.75C16.1642 7.75 16.5 7.41421 16.5 7V6C16.5 3.92893 14.8211 2.25 12.75 2.25H6.75ZM11.7803 9.53033C12.0732 9.23744 12.0732 8.76256 11.7803 8.46967C11.4874 8.17678 11.0126 8.17678 10.7197 8.46967L7.71967 11.4697C7.42678 11.7626 7.42678 12.2374 7.71967 12.5303L10.7197 15.5303C11.0126 15.8232 11.4874 15.8232 11.7803 15.5303C12.0732 15.2374 12.0732 14.7626 11.7803 14.4697L10.0607 12.75H20.25C20.6642 12.75 21 12.4142 21 12C21 11.5858 20.6642 11.25 20.25 11.25H10.0607L11.7803 9.53033Z"/>
</symbol></svg>