<svg width="240" height="300" viewBox="0 0 240 300" fill="none" xmlns="http://www.w3.org/2000/svg">
<mask id="mask0_2189_6464" style="mask-type:luminance" maskUnits="userSpaceOnUse" x="0" y="0" width="240" height="300">
<path d="M233.469 0H6.53061C2.92385 0 0 7.16344 0 16V284C0 292.837 2.92385 300 6.53061 300H233.469C237.076 300 240 292.837 240 284V16C240 7.16344 237.076 0 233.469 0Z" fill="white"/>
</mask>
<g mask="url(#mask0_2189_6464)">
<path d="M233.497 0H7.5034C3.91167 0 1 7.16344 1 16V284C1 292.837 3.91167 300 7.5034 300H233.497C237.088 300 240 292.837 240 284V16C240 7.16344 237.088 0 233.497 0Z" fill="white"/>
<mask id="mask1_2189_6464" style="mask-type:luminance" maskUnits="userSpaceOnUse" x="-44" y="-6" width="350" height="350">
<path d="M-44 -6H306V344H-44V-6Z" fill="white"/>
</mask>
<g mask="url(#mask1_2189_6464)">
<path d="M33.5793 260.766C38.7943 266.236 43.7293 269.764 47.6283 272.551C93.4593 305.311 147.688 295.763 159.208 293.431C176.227 289.987 209.125 283.33 232.91 255.464C268.9 213.304 263.3 146.88 235.385 103.038C230.279 95.017 203.31 50.504 148.5 43.3654C115.32 39.045 76.6553 47.76 48.6523 71.14C-10.1287 120.196 -5.94366 219.313 33.5793 260.766Z" fill="#EFEFF4"/>
<path d="M176.406 173.745C176.406 173.745 167.876 148.174 177.62 137.64C187.364 127.106 208.602 115.848 198.079 78.5992C191.919 56.7928 189.539 47.1594 188.635 42.9216C188.553 42.5363 188.383 42.1753 188.138 41.8668C187.893 41.5583 187.58 41.3107 187.223 41.1435C186.866 40.9763 186.476 40.8939 186.082 40.9029C185.688 40.912 185.302 41.012 184.953 41.1954C174.366 46.766 140.541 66.6978 140.545 93.9656C140.55 126.29 176.406 173.745 176.406 173.745Z" fill="#5FE0BB"/>
<path opacity="0.5" d="M179.332 54.1034C176.781 58.2726 174.659 62.6294 172.671 67.0646L171.937 68.732L171.237 70.412C170.769 71.532 170.305 72.652 169.878 73.793C168.987 76.054 168.198 78.3528 167.397 80.653C166.653 82.9686 165.889 85.273 165.256 87.6278C164.565 89.9616 163.986 92.3248 163.404 94.6894C162.346 99.4494 161.338 104.193 160.786 109.083C160.646 110.305 160.506 111.527 160.38 112.751L160.211 116.434L160.127 118.277L160.152 120.118L160.226 123.8L160.506 127.469L160.646 129.302L160.88 131.122C161.041 132.335 161.182 133.553 161.375 134.762L162.035 138.372C163.953 147.975 166.992 157.29 171.49 166.035C171.614 166.28 171.829 166.467 172.089 166.556C172.348 166.645 172.633 166.628 172.881 166.51C173.129 166.393 173.321 166.182 173.416 165.925C173.511 165.667 173.501 165.382 173.389 165.132L173.361 165.072C171.445 160.715 169.814 156.239 168.478 151.672C167.126 147.107 166.028 142.471 165.188 137.784L164.614 134.267C164.454 133.091 164.334 131.91 164.182 130.734L163.97 128.967L163.848 127.192L163.62 123.64L163.572 120.09L163.543 118.314L163.621 116.542L163.768 113C163.88 111.825 164.024 110.652 164.15 109.479C164.357 107.134 164.81 104.774 165.168 102.417C165.34 101.237 165.61 100.072 165.827 98.8978C166.068 97.7288 166.257 96.5486 166.541 95.3894C167.53 90.7148 168.76 86.0934 170.086 81.4958C170.786 79.211 171.486 76.9192 172.272 74.6582C172.638 73.5172 173.042 72.3902 173.448 71.2632L174.054 69.572L174.696 67.892C176.392 63.412 178.259 58.9726 180.366 54.6928L180.378 54.6718C180.443 54.5341 180.454 54.3764 180.407 54.2311C180.361 54.0858 180.26 53.9639 180.126 53.8903C179.993 53.8167 179.836 53.7971 179.688 53.8354C179.54 53.8737 179.413 53.9671 179.332 54.0964V54.1034Z" fill="white"/>
<path d="M144.268 265.607C141.683 267.084 167.375 230.201 172.621 174.502C175.093 148.255 173.08 115.694 187.085 102.207C198.742 90.9822 241.082 94.9134 254.959 96.5486C255.348 96.5939 255.715 96.7489 256.019 96.9955C256.323 97.2422 256.55 97.5702 256.675 97.9413C256.799 98.3124 256.815 98.7112 256.721 99.0911C256.627 99.471 256.426 99.8162 256.143 100.086C249.916 106.028 236.672 119.952 233.84 133.317C230.106 150.94 214.348 162.988 199.804 166.9C185.261 170.812 177.249 174.226 171.568 198.243C165.887 222.26 151.612 261.41 144.268 265.607Z" fill="#F1F1F1"/>
<path opacity="0.5" d="M236.14 105.126C227.281 106.106 218.708 108.849 210.926 113.193C207.008 115.364 203.385 118.028 200.146 121.121C196.926 124.241 194.095 127.802 191.925 131.747L191.119 133.229C190.854 133.726 190.634 134.244 190.391 134.75C190.147 135.257 189.908 135.774 189.691 136.281L189.051 137.805C188.196 139.833 187.353 141.868 186.523 143.911C184.866 147.993 183.276 152.1 181.751 156.231C178.695 164.491 175.904 172.858 173.631 181.391C173.606 181.496 173.621 181.606 173.675 181.7C173.728 181.793 173.816 181.863 173.919 181.894C174.022 181.925 174.133 181.915 174.229 181.866C174.325 181.817 174.399 181.734 174.435 181.632V181.62C175.814 177.463 177.269 173.313 178.804 169.202C180.318 165.081 181.879 160.978 183.486 156.893L185.914 150.773L188.408 144.679C189.237 142.648 190.084 140.623 190.948 138.605L191.591 137.09C191.803 136.583 192.04 136.11 192.264 135.62C192.488 135.13 192.699 134.64 192.95 134.162L193.72 132.747C195.761 128.967 198.47 125.571 201.501 122.516C203.041 121.001 204.678 119.588 206.401 118.286L207.042 117.794L207.703 117.323C208.146 117.012 208.58 116.689 209.029 116.388C209.935 115.796 210.835 115.192 211.774 114.649C215.487 112.409 219.474 110.617 223.569 109.128C227.669 107.626 231.901 106.511 236.209 105.798H236.23C236.315 105.782 236.39 105.734 236.441 105.664C236.492 105.594 236.513 105.507 236.502 105.421C236.49 105.335 236.446 105.257 236.378 105.203C236.311 105.149 236.225 105.123 236.139 105.131L236.14 105.126Z" fill="white"/>
<path d="M112.537 101.166C113.177 101.165 113.791 100.916 114.251 100.471C114.71 100.025 114.978 99.4184 114.998 98.7788C115.013 98.286 115.331 86.5456 111.82 74.0254C107.026 56.9314 97.358 46.7912 83.861 44.7024C77.076 43.651 71.0341 45.2624 65.9061 49.4876C49.9081 62.6728 48.4001 97.1464 48.3381 98.608C48.3231 99.2551 48.5621 99.8823 49.0051 100.354C49.4491 100.826 50.06 101.105 50.706 101.13C51.353 101.155 51.9841 100.924 52.4621 100.488C52.9401 100.052 53.228 99.4448 53.262 98.7984C53.275 98.4624 54.7461 65.0584 69.0441 53.2858C73.0961 49.9482 77.6951 48.733 83.1071 49.5716C111.134 53.9116 110.087 98.1796 110.073 98.6262C110.052 99.2784 110.291 99.912 110.738 100.388C111.184 100.864 111.801 101.144 112.453 101.166H112.537Z" fill="#7B818D"/>
<path d="M175.81 245.744L146.489 87.9904L58.6092 86.54L30.2822 255.402H162.273C166.967 255.4 176.5 250.388 175.81 245.744Z" fill="#C2C8D3"/>
<path d="M41.5403 87.9904L58.6093 86.54L30.2833 255.402H13.3433C12.5383 255.402 11.7433 255.222 11.0163 254.876C10.2903 254.53 9.64926 254.027 9.14126 253.402C8.63426 252.778 8.27126 252.048 8.08126 251.266C7.89126 250.484 7.87725 249.669 8.04125 248.881L41.5403 87.9904Z" fill="#D2D5DF"/>
<path d="M69.6802 100.803C70.3162 100.805 70.9292 100.559 71.3882 100.118C71.8482 99.6778 72.1192 99.0763 72.1452 98.4401C72.1592 98.1041 73.6292 64.7 87.9272 52.9274C91.9792 49.5898 96.5782 48.3746 101.99 49.2118C129.975 53.5434 128.969 97.8213 128.955 98.2693C128.945 98.9167 129.189 99.5424 129.636 100.011C130.083 100.48 130.696 100.753 131.344 100.773C131.991 100.793 132.62 100.557 133.095 100.117C133.569 99.6769 133.852 99.0673 133.881 98.4205C133.896 97.9263 134.215 86.1872 130.703 73.6656C125.909 56.5716 116.241 46.4314 102.743 44.3426C95.9582 43.2926 89.9182 44.9026 84.7902 49.1292C68.7912 62.313 67.2792 96.7867 67.2232 98.2483C67.2102 98.5714 67.2612 98.8939 67.3732 99.1973C67.4852 99.5007 67.6552 99.7791 67.8752 100.017C68.0952 100.254 68.3592 100.446 68.6532 100.581C68.9462 100.716 69.2642 100.792 69.5872 100.805L69.6802 100.803Z" fill="#7B818D"/>
<path d="M248.548 261.229C248.545 262.165 248.172 263.062 247.51 263.724C246.847 264.385 245.95 264.758 245.014 264.76H53.934C52.998 264.758 52.101 264.385 51.439 263.724C50.777 263.063 50.404 262.166 50.4 261.231L48.811 151.422C48.811 149.48 51.098 145.69 55.291 145.974L242.035 141.14C243.241 141.108 244.44 141.322 245.56 141.767C246.681 142.213 247.699 142.881 248.553 143.732C249.408 144.583 250.08 145.599 250.53 146.717C250.98 147.836 251.199 149.034 251.172 150.24L248.548 261.229Z" fill="#7B818D"/>
<path d="M245.059 257.843C245.054 258.728 244.7 259.575 244.074 260.201C243.448 260.827 242.601 261.18 241.716 261.184H58.5432C57.6572 261.182 56.8082 260.829 56.1812 260.203C55.5552 259.577 55.2022 258.728 55.1992 257.843L53.6992 158.163C53.8752 152.164 59.1352 150.008 62.3232 150.135L241.3 145.333C242.148 145.311 242.992 145.461 243.78 145.775C244.568 146.088 245.284 146.559 245.884 147.158C246.485 147.757 246.957 148.472 247.273 149.259C247.589 150.047 247.741 150.89 247.72 151.738L245.059 257.843Z" fill="white"/>
<path d="M57.1793 210.485C57.2443 210.484 57.3073 210.471 57.3673 210.445C57.4263 210.42 57.4803 210.383 57.5253 210.337C57.5703 210.291 57.6063 210.236 57.6303 210.176C57.6543 210.116 57.6663 210.052 57.6653 209.988L57.5463 201.903C57.5443 201.774 57.4913 201.652 57.4003 201.561C57.3083 201.471 57.1853 201.42 57.0563 201.42C56.9263 201.422 56.8023 201.476 56.7113 201.569C56.6213 201.663 56.5713 201.788 56.5733 201.918L56.6923 210.002C56.6943 210.13 56.7463 210.253 56.8373 210.343C56.9283 210.433 57.0513 210.484 57.1793 210.485Z" fill="#F1F1F1"/>
<path d="M56.888 190.673C56.952 190.672 57.016 190.659 57.075 190.633C57.134 190.608 57.188 190.571 57.233 190.525C57.277 190.479 57.313 190.424 57.337 190.364C57.36 190.305 57.372 190.241 57.371 190.176L56.916 159.214C56.925 157.374 57.476 155.906 58.575 154.859C60.615 152.899 63.853 153.005 63.99 153.011L121.196 151.471C121.325 151.467 121.448 151.412 121.538 151.318C121.627 151.223 121.675 151.098 121.672 150.968C121.673 150.903 121.66 150.838 121.635 150.778C121.61 150.718 121.573 150.664 121.525 150.619C121.478 150.574 121.422 150.539 121.361 150.517C121.299 150.495 121.234 150.486 121.169 150.491L63.997 152.031C63.642 152.01 60.194 151.949 57.898 154.15C56.607 155.388 55.946 157.09 55.938 159.217L56.393 190.19C56.394 190.32 56.448 190.444 56.54 190.534C56.633 190.625 56.758 190.675 56.888 190.673Z" fill="#F1F1F1"/>
<path d="M256.911 273.492H45.153C44.194 273.492 43.417 272.715 43.417 271.756V265.963C43.417 265.004 44.194 264.227 45.153 264.227H256.911C257.87 264.227 258.647 265.004 258.647 265.963V271.756C258.647 272.715 257.87 273.492 256.911 273.492Z" fill="#A8B2BC"/>
<path opacity="0.45" d="M191.343 184.7H234.975C238.283 184.7 240.964 187.381 240.964 190.689V235.03C240.964 238.337 238.283 241.019 234.975 241.019H191.343C188.035 241.019 185.354 238.337 185.354 235.03V190.689C185.354 187.381 188.035 184.7 191.343 184.7Z" fill="#D2D5DF"/>
<path opacity="0.45" d="M129.099 184.429H172.731C176.039 184.429 178.72 187.111 178.72 190.418V234.759C178.72 238.067 176.039 240.749 172.731 240.749H129.099C125.791 240.749 123.109 238.067 123.109 234.759V190.418C123.109 187.111 125.791 184.429 129.099 184.429Z" fill="#D2D5DF"/>
<path opacity="0.45" d="M66.8542 184.7H110.487C113.795 184.7 116.476 187.381 116.476 190.689V235.03C116.476 238.337 113.795 241.019 110.487 241.019H66.8542C63.5472 241.019 60.8652 238.337 60.8652 235.03V190.689C60.8652 187.381 63.5472 184.7 66.8542 184.7Z" fill="#D2D5DF"/>
<path d="M196.334 189.555C196.464 189.049 196.759 188.601 197.172 188.281C197.586 187.961 198.093 187.787 198.616 187.787H226.824C227.347 187.787 227.855 187.961 228.268 188.281C228.681 188.601 228.976 189.049 229.106 189.555C230.673 195.621 236.23 216.083 237.294 233.397C237.316 233.775 237.223 234.15 237.027 234.473C236.83 234.796 236.54 235.052 236.195 235.206C233.207 236.536 225.102 239.654 219.056 237.38C218.768 237.27 218.513 237.09 218.314 236.856C218.114 236.623 217.976 236.343 217.912 236.042C217.143 232.497 214.342 219.828 212.719 215.866C211.097 219.828 208.297 232.497 207.528 236.042C207.464 236.343 207.326 236.623 207.126 236.857C206.926 237.09 206.67 237.27 206.383 237.38C200.338 239.654 192.233 236.54 189.246 235.206C188.9 235.052 188.61 234.796 188.414 234.473C188.217 234.15 188.124 233.775 188.147 233.397C189.211 216.083 194.766 195.621 196.334 189.555Z" fill="#19D791"/>
<path d="M229.4 199.932C229.532 199.92 229.656 199.862 229.749 199.767C229.843 199.673 229.899 199.549 229.91 199.416C229.92 199.284 229.882 199.153 229.804 199.045C229.727 198.938 229.613 198.861 229.484 198.83C225.294 198.191 222.533 196.434 221.276 193.609C220.715 192.346 220.491 190.96 220.625 189.584C220.627 189.449 220.579 189.318 220.492 189.215C220.405 189.112 220.283 189.044 220.15 189.024C220.016 189.004 219.88 189.032 219.766 189.104C219.652 189.176 219.568 189.287 219.529 189.416C219.362 191.002 219.615 192.603 220.264 194.06C221.244 196.255 223.601 199.055 229.316 199.926C229.344 199.93 229.372 199.932 229.4 199.932Z" fill="white"/>
<path d="M196.744 199.024H196.773C200.133 198.849 202.989 197.146 205.053 194.095C205.995 192.697 206.704 191.156 207.153 189.531C207.183 189.456 207.197 189.376 207.193 189.296C207.19 189.216 207.169 189.137 207.132 189.066C207.096 188.994 207.044 188.931 206.981 188.882C206.918 188.832 206.845 188.796 206.767 188.777C206.689 188.758 206.608 188.756 206.529 188.771C206.45 188.786 206.375 188.818 206.309 188.865C206.244 188.911 206.189 188.971 206.149 189.041C206.109 189.11 206.084 189.188 206.076 189.268C205.65 190.773 204.988 192.202 204.115 193.5C202.231 196.273 199.741 197.759 196.716 197.916C196.584 197.939 196.464 198.008 196.379 198.112C196.294 198.216 196.249 198.347 196.253 198.481C196.256 198.615 196.308 198.744 196.398 198.843C196.488 198.943 196.611 199.006 196.744 199.023V199.024Z" fill="white"/>
<path d="M211.258 202.048H211.319L212.522 201.908C213.325 201.82 214.067 201.438 214.605 200.837C215.144 200.235 215.442 199.455 215.441 198.648V189.497C215.422 189.364 215.355 189.242 215.254 189.153C215.152 189.065 215.021 189.016 214.887 189.016C214.752 189.016 214.621 189.065 214.52 189.153C214.418 189.242 214.351 189.364 214.332 189.497V198.648C214.333 199.183 214.136 199.699 213.779 200.097C213.423 200.496 212.932 200.748 212.4 200.807L211.198 200.947C211.067 200.975 210.951 201.048 210.87 201.154C210.789 201.26 210.749 201.391 210.756 201.525C210.763 201.658 210.818 201.784 210.91 201.88C211.002 201.977 211.125 202.038 211.258 202.051V202.048Z" fill="white"/>
<path d="M189.815 233.476C189.866 233.475 189.916 233.455 189.953 233.42C189.99 233.385 190.012 233.336 190.015 233.285L190.032 232.984C190.035 232.931 190.017 232.878 189.981 232.838C189.945 232.798 189.895 232.774 189.842 232.771C189.788 232.768 189.736 232.787 189.696 232.822C189.656 232.858 189.632 232.908 189.629 232.962L189.613 233.263C189.612 233.289 189.615 233.316 189.624 233.341C189.633 233.366 189.646 233.389 189.664 233.409C189.682 233.429 189.703 233.445 189.727 233.456C189.751 233.468 189.777 233.474 189.804 233.476H189.815ZM189.871 232.47C189.922 232.47 189.972 232.45 190.009 232.415C190.046 232.379 190.068 232.331 190.071 232.28L190.089 231.979C190.093 231.952 190.09 231.924 190.082 231.898C190.075 231.872 190.062 231.847 190.044 231.826C190.026 231.805 190.005 231.788 189.98 231.775C189.956 231.763 189.929 231.756 189.902 231.754C189.874 231.752 189.847 231.756 189.821 231.765C189.795 231.775 189.772 231.789 189.752 231.808C189.732 231.827 189.716 231.849 189.705 231.874C189.694 231.899 189.688 231.926 189.688 231.954L189.669 232.256C189.668 232.283 189.671 232.309 189.68 232.334C189.688 232.359 189.702 232.382 189.719 232.402C189.737 232.422 189.758 232.438 189.782 232.449C189.806 232.461 189.832 232.468 189.858 232.469L189.871 232.47ZM189.933 231.464C189.984 231.464 190.033 231.444 190.071 231.409C190.108 231.374 190.131 231.326 190.134 231.275L190.154 230.974C190.157 230.92 190.139 230.868 190.104 230.827C190.069 230.787 190.019 230.762 189.965 230.759C189.912 230.755 189.859 230.773 189.819 230.809C189.779 230.844 189.754 230.894 189.751 230.947L189.731 231.25C189.729 231.276 189.733 231.303 189.741 231.328C189.75 231.353 189.763 231.376 189.781 231.396C189.799 231.416 189.82 231.432 189.844 231.444C189.868 231.455 189.894 231.462 189.92 231.464H189.933ZM190.001 230.459C190.052 230.458 190.101 230.439 190.138 230.404C190.175 230.369 190.198 230.322 190.201 230.271L190.222 229.97C190.224 229.918 190.206 229.867 190.171 229.829C190.136 229.79 190.088 229.766 190.036 229.762C189.984 229.758 189.932 229.775 189.892 229.808C189.852 229.841 189.826 229.889 189.821 229.941L189.8 230.242C189.797 230.268 189.801 230.295 189.809 230.32C189.817 230.345 189.83 230.368 189.848 230.388C189.865 230.408 189.886 230.425 189.91 230.437C189.934 230.448 189.959 230.455 189.986 230.457L190.001 230.459ZM190.074 229.453C190.125 229.453 190.174 229.434 190.211 229.399C190.248 229.365 190.271 229.318 190.276 229.267L190.298 228.965C190.3 228.912 190.282 228.861 190.247 228.822C190.213 228.783 190.164 228.759 190.112 228.755C190.06 228.751 190.008 228.767 189.968 228.801C189.928 228.834 189.902 228.882 189.896 228.934L189.872 229.236C189.869 229.29 189.886 229.342 189.921 229.383C189.956 229.423 190.005 229.448 190.059 229.452L190.074 229.453ZM190.154 228.448C190.204 228.448 190.253 228.429 190.29 228.395C190.327 228.361 190.35 228.314 190.354 228.263L190.379 227.962C190.384 227.909 190.367 227.856 190.332 227.815C190.298 227.775 190.248 227.749 190.195 227.745C190.142 227.74 190.089 227.757 190.048 227.792C190.007 227.826 189.982 227.875 189.977 227.929L189.952 228.23C189.948 228.283 189.965 228.336 190 228.377C190.034 228.417 190.084 228.442 190.137 228.447L190.154 228.448ZM190.239 227.443C190.29 227.443 190.338 227.424 190.375 227.39C190.412 227.356 190.435 227.31 190.439 227.26L190.466 226.959C190.471 226.906 190.454 226.853 190.42 226.812C190.386 226.771 190.337 226.745 190.284 226.74C190.231 226.736 190.177 226.752 190.136 226.787C190.095 226.821 190.069 226.87 190.064 226.924L190.038 227.225C190.035 227.251 190.038 227.278 190.046 227.303C190.054 227.328 190.067 227.351 190.084 227.372C190.101 227.392 190.122 227.409 190.145 227.421C190.169 227.433 190.195 227.441 190.221 227.443H190.239ZM190.33 226.439C190.38 226.439 190.429 226.421 190.466 226.387C190.503 226.353 190.526 226.307 190.53 226.257L190.558 225.956C190.563 225.929 190.562 225.901 190.555 225.874C190.548 225.847 190.536 225.822 190.519 225.8C190.502 225.778 190.481 225.76 190.457 225.747C190.433 225.733 190.406 225.725 190.378 225.722C190.351 225.72 190.323 225.723 190.297 225.731C190.271 225.74 190.246 225.754 190.226 225.772C190.205 225.791 190.188 225.813 190.177 225.838C190.165 225.863 190.159 225.891 190.158 225.918L190.129 226.219C190.124 226.273 190.14 226.326 190.174 226.367C190.209 226.408 190.257 226.434 190.311 226.439H190.33ZM190.427 225.437C190.477 225.437 190.525 225.418 190.562 225.384C190.599 225.351 190.622 225.305 190.627 225.255L190.658 224.954C190.66 224.927 190.658 224.901 190.65 224.875C190.643 224.85 190.63 224.826 190.613 224.806C190.597 224.785 190.576 224.768 190.553 224.756C190.529 224.743 190.504 224.735 190.477 224.733C190.451 224.73 190.424 224.732 190.399 224.74C190.373 224.748 190.35 224.76 190.329 224.777C190.309 224.794 190.292 224.814 190.279 224.838C190.266 224.861 190.259 224.887 190.256 224.913L190.227 225.214C190.224 225.241 190.226 225.267 190.234 225.293C190.242 225.318 190.254 225.342 190.271 225.362C190.288 225.383 190.308 225.4 190.332 225.412C190.355 225.425 190.381 225.433 190.407 225.435L190.427 225.437ZM190.529 224.433C190.579 224.434 190.627 224.415 190.664 224.382C190.701 224.349 190.724 224.303 190.729 224.254L190.761 223.953C190.765 223.901 190.748 223.85 190.714 223.811C190.681 223.771 190.633 223.746 190.582 223.74C190.53 223.735 190.479 223.749 190.438 223.781C190.396 223.812 190.369 223.858 190.361 223.909L190.329 224.21C190.323 224.264 190.339 224.317 190.373 224.359C190.406 224.4 190.455 224.427 190.508 224.433H190.529ZM190.638 223.432C190.688 223.432 190.735 223.413 190.772 223.38C190.809 223.347 190.833 223.302 190.838 223.253L190.872 222.952C190.878 222.899 190.862 222.845 190.829 222.803C190.796 222.761 190.747 222.734 190.693 222.728C190.64 222.723 190.587 222.738 190.545 222.771C190.503 222.805 190.476 222.854 190.47 222.907L190.437 223.208C190.431 223.261 190.447 223.314 190.48 223.356C190.514 223.398 190.563 223.425 190.616 223.431L190.638 223.432ZM190.752 222.43C190.801 222.429 190.848 222.411 190.885 222.378C190.922 222.346 190.946 222.301 190.952 222.252L190.987 221.952C190.993 221.899 190.978 221.846 190.945 221.804C190.912 221.762 190.863 221.735 190.81 221.728C190.757 221.722 190.704 221.737 190.662 221.77C190.62 221.803 190.593 221.851 190.586 221.905L190.551 222.206C190.548 222.232 190.55 222.258 190.558 222.284C190.565 222.309 190.577 222.333 190.593 222.354C190.61 222.374 190.63 222.392 190.653 222.404C190.676 222.417 190.702 222.425 190.728 222.428L190.752 222.43ZM190.872 221.429C190.921 221.429 190.968 221.411 191.005 221.378C191.042 221.346 191.065 221.301 191.071 221.252L191.109 220.953C191.115 220.899 191.101 220.846 191.068 220.804C191.035 220.761 190.987 220.734 190.934 220.727C190.88 220.721 190.827 220.735 190.785 220.768C190.742 220.801 190.715 220.849 190.708 220.902L190.67 221.203C190.667 221.229 190.669 221.256 190.677 221.282C190.684 221.307 190.696 221.331 190.712 221.352C190.729 221.373 190.749 221.39 190.772 221.403C190.795 221.416 190.82 221.424 190.847 221.427L190.872 221.429ZM190.997 220.429C191.046 220.429 191.093 220.411 191.13 220.379C191.167 220.346 191.191 220.301 191.197 220.253L191.235 219.953C191.238 219.902 191.222 219.851 191.189 219.812C191.156 219.772 191.11 219.747 191.059 219.74C191.009 219.734 190.957 219.747 190.916 219.776C190.874 219.806 190.845 219.851 190.836 219.901L190.796 220.202C190.793 220.228 190.795 220.255 190.802 220.281C190.809 220.306 190.821 220.33 190.837 220.351C190.853 220.372 190.874 220.39 190.897 220.403C190.92 220.416 190.945 220.424 190.971 220.428L190.997 220.429ZM191.128 219.429C191.177 219.429 191.224 219.412 191.261 219.379C191.297 219.347 191.321 219.303 191.327 219.254L191.368 218.955C191.373 218.928 191.372 218.9 191.366 218.873C191.361 218.847 191.349 218.821 191.333 218.799C191.317 218.777 191.297 218.758 191.273 218.744C191.25 218.73 191.223 218.721 191.196 218.717C191.169 218.713 191.141 218.715 191.115 218.723C191.089 218.73 191.064 218.743 191.043 218.76C191.021 218.777 191.004 218.799 190.991 218.823C190.978 218.848 190.971 218.874 190.969 218.902L190.928 219.201C190.924 219.227 190.926 219.254 190.933 219.28C190.94 219.306 190.952 219.33 190.968 219.351C190.984 219.372 191.004 219.389 191.027 219.403C191.05 219.416 191.075 219.425 191.102 219.428L191.128 219.429ZM191.268 218.431C191.317 218.431 191.364 218.414 191.401 218.382C191.438 218.35 191.462 218.306 191.468 218.258L191.51 217.958C191.515 217.931 191.515 217.904 191.508 217.877C191.502 217.851 191.491 217.826 191.475 217.804C191.459 217.782 191.439 217.764 191.416 217.75C191.393 217.736 191.367 217.727 191.34 217.723C191.313 217.719 191.286 217.721 191.26 217.728C191.233 217.735 191.209 217.747 191.188 217.764C191.166 217.781 191.148 217.801 191.135 217.825C191.122 217.849 191.114 217.875 191.111 217.902L191.069 218.202C191.066 218.228 191.067 218.254 191.074 218.28C191.08 218.305 191.092 218.329 191.108 218.351C191.123 218.372 191.143 218.389 191.166 218.403C191.189 218.416 191.214 218.425 191.24 218.428L191.268 218.431ZM191.408 217.433C191.457 217.433 191.503 217.415 191.54 217.384C191.577 217.352 191.601 217.309 191.608 217.261L191.652 216.961C191.66 216.908 191.646 216.854 191.614 216.812C191.582 216.769 191.535 216.74 191.482 216.732C191.429 216.725 191.375 216.738 191.332 216.77C191.289 216.802 191.261 216.85 191.253 216.902L191.209 217.202C191.205 217.228 191.207 217.255 191.213 217.28C191.219 217.306 191.231 217.33 191.247 217.351C191.262 217.373 191.282 217.39 191.305 217.404C191.327 217.418 191.353 217.426 191.379 217.43L191.408 217.433ZM191.557 216.436C191.605 216.436 191.651 216.419 191.688 216.387C191.724 216.355 191.748 216.312 191.755 216.264L191.802 215.966C191.806 215.94 191.804 215.913 191.798 215.887C191.792 215.861 191.781 215.837 191.765 215.816C191.733 215.773 191.686 215.744 191.633 215.736C191.58 215.727 191.526 215.741 191.483 215.772C191.44 215.804 191.411 215.851 191.403 215.904L191.356 216.204C191.349 216.257 191.362 216.31 191.394 216.353C191.426 216.396 191.473 216.425 191.526 216.433L191.557 216.436ZM191.711 215.439C191.759 215.44 191.805 215.423 191.841 215.392C191.878 215.361 191.902 215.317 191.909 215.27L191.957 214.972C191.966 214.919 191.953 214.865 191.921 214.821C191.89 214.778 191.843 214.749 191.79 214.74C191.737 214.732 191.683 214.744 191.639 214.776C191.596 214.807 191.567 214.855 191.558 214.907L191.512 215.207C191.508 215.233 191.509 215.26 191.515 215.285C191.521 215.311 191.532 215.335 191.547 215.356C191.563 215.378 191.582 215.396 191.605 215.41C191.627 215.423 191.652 215.433 191.678 215.437C191.688 215.439 191.699 215.44 191.709 215.439H191.711ZM191.87 214.444C191.918 214.444 191.964 214.427 192 214.396C192.037 214.365 192.061 214.322 192.069 214.275L192.118 213.978C192.123 213.951 192.123 213.924 192.118 213.898C192.112 213.871 192.101 213.846 192.086 213.824C192.071 213.802 192.051 213.783 192.028 213.768C192.005 213.754 191.98 213.744 191.953 213.74C191.926 213.735 191.899 213.736 191.873 213.743C191.847 213.749 191.822 213.761 191.8 213.777C191.779 213.793 191.76 213.813 191.747 213.836C191.733 213.859 191.724 213.885 191.72 213.912L191.671 214.21C191.667 214.236 191.668 214.263 191.674 214.289C191.68 214.315 191.691 214.339 191.706 214.361C191.722 214.382 191.742 214.4 191.764 214.414C191.787 214.428 191.812 214.437 191.838 214.441C191.848 214.443 191.859 214.444 191.87 214.444ZM192.035 213.45C192.083 213.45 192.129 213.433 192.165 213.402C192.202 213.371 192.226 213.329 192.234 213.282L192.285 212.984C192.293 212.931 192.281 212.877 192.25 212.833C192.219 212.79 192.172 212.76 192.119 212.751C192.067 212.743 192.013 212.755 191.969 212.786C191.925 212.817 191.896 212.864 191.887 212.917L191.837 213.215C191.832 213.241 191.833 213.268 191.838 213.294C191.844 213.319 191.855 213.344 191.871 213.366C191.886 213.387 191.905 213.406 191.928 213.42C191.951 213.434 191.976 213.443 192.002 213.447L192.035 213.45ZM192.206 212.456C192.254 212.456 192.3 212.439 192.336 212.409C192.372 212.378 192.397 212.336 192.405 212.289L192.457 211.993C192.466 211.94 192.454 211.886 192.423 211.842C192.393 211.798 192.346 211.768 192.293 211.759C192.24 211.75 192.186 211.762 192.142 211.792C192.098 211.823 192.068 211.87 192.059 211.923L192.007 212.221C192.003 212.247 192.003 212.274 192.009 212.299C192.015 212.325 192.026 212.35 192.041 212.371C192.056 212.393 192.075 212.411 192.098 212.425C192.12 212.439 192.145 212.449 192.171 212.453C192.182 212.455 192.195 212.456 192.206 212.456ZM192.383 211.465C192.43 211.465 192.476 211.448 192.512 211.417C192.548 211.387 192.573 211.345 192.581 211.298L192.635 211.001C192.641 210.975 192.641 210.947 192.636 210.921C192.632 210.894 192.621 210.868 192.606 210.846C192.591 210.823 192.572 210.804 192.549 210.789C192.527 210.773 192.501 210.763 192.474 210.758C192.448 210.753 192.42 210.754 192.394 210.76C192.367 210.766 192.342 210.777 192.32 210.793C192.298 210.809 192.279 210.829 192.265 210.853C192.251 210.876 192.242 210.902 192.238 210.929L192.184 211.227C192.174 211.279 192.186 211.333 192.217 211.377C192.247 211.421 192.294 211.451 192.346 211.461L192.383 211.465ZM192.565 210.472C192.612 210.472 192.657 210.456 192.694 210.426C192.73 210.396 192.755 210.355 192.763 210.308L192.819 210.012C192.829 209.959 192.818 209.905 192.788 209.86C192.758 209.816 192.712 209.786 192.659 209.776C192.607 209.766 192.552 209.777 192.508 209.807C192.464 209.837 192.433 209.884 192.423 209.936L192.367 210.234C192.357 210.287 192.369 210.341 192.399 210.385C192.429 210.429 192.476 210.46 192.528 210.469C192.54 210.472 192.551 210.473 192.563 210.472H192.565ZM192.754 209.482C192.8 209.482 192.846 209.466 192.882 209.436C192.918 209.406 192.942 209.365 192.951 209.319L193.008 209.022C193.019 208.969 193.008 208.915 192.978 208.87C192.948 208.826 192.901 208.795 192.849 208.785C192.796 208.775 192.742 208.786 192.697 208.816C192.653 208.846 192.622 208.892 192.612 208.945L192.555 209.243C192.55 209.269 192.55 209.296 192.555 209.322C192.56 209.347 192.571 209.372 192.586 209.394C192.6 209.416 192.619 209.434 192.642 209.449C192.664 209.463 192.688 209.473 192.714 209.478C192.727 209.481 192.739 209.482 192.752 209.482H192.754ZM192.947 208.493C192.993 208.493 193.038 208.477 193.074 208.448C193.11 208.418 193.135 208.377 193.144 208.332L193.204 208.035C193.21 208.009 193.21 207.982 193.205 207.956C193.199 207.93 193.189 207.905 193.175 207.883C193.16 207.861 193.141 207.842 193.119 207.827C193.097 207.812 193.072 207.802 193.046 207.797C193.02 207.792 192.993 207.792 192.967 207.797C192.941 207.802 192.917 207.812 192.894 207.827C192.872 207.841 192.853 207.86 192.839 207.882C192.824 207.904 192.813 207.929 192.808 207.955L192.749 208.252C192.744 208.278 192.744 208.305 192.749 208.331C192.754 208.357 192.764 208.382 192.779 208.404C192.794 208.426 192.813 208.445 192.835 208.46C192.857 208.474 192.882 208.485 192.908 208.49C192.92 208.492 192.933 208.493 192.945 208.493H192.947ZM193.147 207.513C193.193 207.513 193.238 207.497 193.274 207.467C193.31 207.438 193.335 207.397 193.344 207.352L193.405 207.055C193.414 207.003 193.402 206.95 193.373 206.906C193.344 206.863 193.298 206.832 193.247 206.822C193.195 206.811 193.142 206.821 193.097 206.85C193.053 206.878 193.022 206.922 193.01 206.974L192.95 207.27C192.939 207.323 192.949 207.377 192.979 207.422C193.008 207.467 193.054 207.498 193.106 207.508C193.12 207.507 193.133 207.504 193.146 207.5L193.147 207.513ZM193.353 206.533C193.399 206.532 193.443 206.516 193.479 206.487C193.515 206.458 193.539 206.418 193.549 206.373L193.612 206.078C193.62 206.027 193.608 205.975 193.579 205.932C193.55 205.89 193.506 205.86 193.455 205.849C193.405 205.838 193.352 205.847 193.308 205.873C193.264 205.9 193.232 205.943 193.218 205.992L193.155 206.289C193.15 206.315 193.149 206.342 193.154 206.368C193.159 206.394 193.169 206.419 193.183 206.441C193.198 206.463 193.217 206.482 193.238 206.497C193.26 206.512 193.285 206.523 193.311 206.528L193.353 206.533ZM193.564 205.553C193.61 205.553 193.655 205.537 193.691 205.508C193.726 205.479 193.751 205.438 193.76 205.393L193.825 205.099C193.832 205.073 193.833 205.045 193.829 205.019C193.825 204.992 193.816 204.966 193.802 204.943C193.788 204.919 193.769 204.899 193.747 204.884C193.725 204.868 193.7 204.857 193.673 204.851C193.647 204.845 193.619 204.844 193.592 204.849C193.566 204.854 193.54 204.865 193.518 204.88C193.495 204.895 193.476 204.915 193.461 204.937C193.446 204.96 193.436 204.986 193.431 205.012L193.367 205.308C193.361 205.333 193.36 205.36 193.365 205.386C193.37 205.412 193.379 205.437 193.394 205.459C193.408 205.482 193.427 205.501 193.449 205.516C193.47 205.531 193.495 205.542 193.521 205.547C193.535 205.547 193.549 205.544 193.563 205.54L193.564 205.553ZM193.781 204.573C193.827 204.572 193.871 204.557 193.907 204.528C193.943 204.499 193.967 204.459 193.977 204.414L194.044 204.12C194.056 204.068 194.047 204.013 194.018 203.968C193.989 203.922 193.944 203.89 193.892 203.878C193.84 203.867 193.785 203.876 193.74 203.905C193.695 203.933 193.663 203.979 193.651 204.031L193.584 204.326C193.572 204.378 193.582 204.433 193.61 204.478C193.639 204.523 193.684 204.555 193.736 204.567C193.751 204.562 193.766 204.556 193.78 204.549L193.781 204.573ZM194.005 203.593C194.05 203.592 194.094 203.577 194.13 203.549C194.165 203.521 194.191 203.481 194.201 203.437L194.268 203.143C194.276 203.117 194.278 203.09 194.275 203.062C194.271 203.035 194.262 203.009 194.248 202.986C194.235 202.962 194.216 202.942 194.194 202.926C194.172 202.909 194.147 202.898 194.121 202.891C194.094 202.885 194.067 202.884 194.04 202.889C194.013 202.894 193.987 202.904 193.964 202.919C193.942 202.934 193.922 202.953 193.907 202.976C193.892 202.999 193.881 203.024 193.876 203.051L193.808 203.346C193.802 203.372 193.801 203.399 193.805 203.425C193.81 203.451 193.819 203.476 193.833 203.499C193.847 203.521 193.865 203.541 193.887 203.556C193.909 203.572 193.933 203.583 193.959 203.588C193.973 203.582 193.987 203.574 194 203.565L194.005 203.593ZM194.233 202.613C194.279 202.613 194.323 202.598 194.359 202.57C194.395 202.541 194.419 202.502 194.429 202.457L194.499 202.165C194.506 202.139 194.508 202.112 194.504 202.085C194.501 202.058 194.492 202.033 194.478 202.009C194.464 201.986 194.446 201.966 194.424 201.95C194.402 201.934 194.378 201.923 194.351 201.917C194.325 201.91 194.298 201.909 194.272 201.914C194.245 201.918 194.22 201.928 194.197 201.942C194.174 201.957 194.155 201.975 194.139 201.998C194.124 202.02 194.113 202.045 194.107 202.071L194.037 202.365C194.025 202.417 194.034 202.472 194.062 202.517C194.09 202.562 194.135 202.595 194.187 202.607C194.203 202.601 194.218 202.593 194.232 202.583L194.233 202.613ZM194.47 201.633C194.515 201.633 194.559 201.617 194.594 201.589C194.629 201.562 194.654 201.522 194.665 201.479L194.737 201.186C194.75 201.134 194.742 201.079 194.714 201.033C194.686 200.988 194.642 200.955 194.59 200.942C194.538 200.929 194.483 200.937 194.437 200.965C194.391 200.993 194.358 201.037 194.345 201.089L194.274 201.383C194.268 201.409 194.267 201.436 194.271 201.462C194.275 201.488 194.284 201.513 194.298 201.536C194.311 201.559 194.33 201.578 194.351 201.594C194.372 201.61 194.397 201.621 194.422 201.627C194.439 201.621 194.454 201.613 194.469 201.603L194.47 201.633ZM194.711 200.653C194.756 200.653 194.8 200.638 194.835 200.61C194.871 200.582 194.896 200.544 194.907 200.5L194.981 200.207C194.994 200.155 194.986 200.1 194.959 200.054C194.931 200.008 194.887 199.975 194.835 199.962C194.783 199.949 194.728 199.957 194.682 199.984C194.635 200.011 194.602 200.056 194.589 200.108L194.516 200.402C194.508 200.432 194.507 200.463 194.513 200.493C194.519 200.523 194.532 200.552 194.551 200.576C194.57 200.6 194.594 200.62 194.622 200.633C194.65 200.646 194.68 200.653 194.711 200.653ZM194.96 199.673C195.005 199.673 195.048 199.658 195.083 199.63C195.118 199.603 195.143 199.565 195.155 199.521L195.23 199.229C195.247 199.177 195.243 199.121 195.218 199.072C195.194 199.023 195.151 198.986 195.099 198.969C195.047 198.952 194.991 198.956 194.942 198.981C194.894 199.005 194.857 199.048 194.84 199.1L194.764 199.393C194.75 199.444 194.757 199.498 194.783 199.544C194.81 199.59 194.853 199.624 194.904 199.638C194.921 199.644 194.94 199.647 194.959 199.647L194.96 199.673ZM195.215 198.693C195.259 198.693 195.302 198.678 195.337 198.651C195.373 198.624 195.398 198.586 195.409 198.543L195.486 198.25C195.497 198.2 195.488 198.147 195.461 198.102C195.434 198.058 195.391 198.026 195.341 198.013C195.291 198 195.238 198.006 195.192 198.031C195.147 198.056 195.113 198.097 195.097 198.147L195.019 198.439C195.005 198.491 195.012 198.545 195.038 198.591C195.064 198.637 195.108 198.671 195.159 198.686C195.178 198.684 195.196 198.68 195.213 198.672L195.215 198.693ZM195.475 197.713C195.52 197.713 195.563 197.698 195.598 197.671C195.633 197.644 195.658 197.606 195.67 197.563L195.75 197.272C195.764 197.22 195.757 197.165 195.73 197.118C195.704 197.072 195.66 197.038 195.608 197.024C195.557 197.01 195.501 197.017 195.455 197.043C195.408 197.07 195.374 197.114 195.36 197.165L195.281 197.458C195.267 197.509 195.274 197.564 195.3 197.61C195.326 197.657 195.369 197.691 195.421 197.706C195.438 197.706 195.456 197.704 195.474 197.7L195.475 197.713ZM195.744 196.733C195.787 196.733 195.829 196.72 195.864 196.695C195.899 196.67 195.924 196.634 195.937 196.593L196.02 196.301C196.027 196.276 196.029 196.249 196.026 196.223C196.023 196.197 196.014 196.171 196.001 196.148C195.988 196.125 195.971 196.104 195.95 196.088C195.929 196.072 195.905 196.059 195.88 196.052C195.854 196.045 195.827 196.043 195.801 196.046C195.775 196.049 195.749 196.058 195.726 196.071C195.703 196.084 195.683 196.101 195.666 196.122C195.65 196.143 195.638 196.167 195.631 196.192L195.549 196.485C195.535 196.536 195.542 196.591 195.568 196.638C195.594 196.684 195.638 196.718 195.689 196.733C195.708 196.731 195.726 196.727 195.743 196.72L195.744 196.733ZM196.024 195.764C196.067 195.764 196.109 195.751 196.144 195.725C196.179 195.7 196.205 195.665 196.219 195.624L196.301 195.334C196.312 195.284 196.304 195.232 196.277 195.188C196.251 195.144 196.209 195.112 196.16 195.097C196.111 195.083 196.059 195.088 196.013 195.111C195.967 195.134 195.932 195.174 195.915 195.222L195.831 195.513C195.822 195.543 195.821 195.575 195.827 195.605C195.832 195.636 195.845 195.665 195.864 195.69C195.883 195.715 195.907 195.735 195.934 195.749C195.962 195.763 195.993 195.771 196.024 195.771V195.764ZM196.304 194.795C196.347 194.796 196.389 194.782 196.424 194.757C196.458 194.732 196.484 194.696 196.497 194.655L196.584 194.365C196.598 194.314 196.591 194.26 196.566 194.214C196.54 194.168 196.497 194.134 196.447 194.119C196.396 194.104 196.342 194.109 196.295 194.134C196.249 194.159 196.214 194.2 196.198 194.25L196.111 194.54C196.103 194.566 196.101 194.593 196.104 194.619C196.107 194.646 196.115 194.672 196.128 194.695C196.141 194.718 196.159 194.739 196.18 194.755C196.201 194.772 196.225 194.784 196.251 194.791C196.267 194.792 196.284 194.791 196.3 194.788L196.304 194.795ZM196.595 193.829C196.638 193.829 196.679 193.815 196.714 193.79C196.748 193.765 196.774 193.73 196.787 193.689L196.877 193.401C196.892 193.349 196.887 193.294 196.862 193.247C196.837 193.199 196.794 193.164 196.743 193.148C196.692 193.132 196.636 193.137 196.589 193.163C196.541 193.188 196.506 193.23 196.49 193.282L196.402 193.571C196.394 193.597 196.392 193.624 196.395 193.651C196.398 193.678 196.406 193.703 196.419 193.727C196.432 193.75 196.45 193.771 196.471 193.788C196.492 193.804 196.516 193.816 196.542 193.824C196.558 193.825 196.575 193.824 196.591 193.822L196.595 193.829ZM196.893 192.866C196.936 192.866 196.978 192.853 197.012 192.827C197.047 192.802 197.072 192.767 197.085 192.726L197.178 192.438C197.186 192.412 197.188 192.386 197.186 192.359C197.184 192.333 197.176 192.307 197.164 192.284C197.152 192.26 197.135 192.239 197.115 192.222C197.095 192.205 197.071 192.192 197.046 192.184C197.021 192.176 196.994 192.173 196.968 192.175C196.941 192.178 196.916 192.185 196.892 192.197C196.868 192.21 196.848 192.226 196.831 192.247C196.813 192.267 196.801 192.29 196.793 192.316L196.702 192.604C196.694 192.629 196.691 192.656 196.693 192.682C196.695 192.709 196.703 192.735 196.715 192.758C196.727 192.782 196.744 192.803 196.764 192.82C196.784 192.837 196.808 192.85 196.833 192.858C196.852 192.86 196.87 192.861 196.889 192.859L196.893 192.866ZM197.201 191.906C197.244 191.906 197.286 191.892 197.32 191.867C197.355 191.842 197.38 191.806 197.393 191.766L197.487 191.486C197.497 191.46 197.502 191.433 197.501 191.405C197.5 191.378 197.494 191.35 197.482 191.326C197.471 191.301 197.454 191.278 197.434 191.26C197.413 191.242 197.389 191.228 197.363 191.219C197.337 191.211 197.309 191.207 197.282 191.21C197.254 191.212 197.228 191.22 197.203 191.234C197.179 191.247 197.158 191.265 197.141 191.286C197.124 191.308 197.112 191.333 197.105 191.36L197.01 191.647C196.993 191.698 196.998 191.753 197.022 191.801C197.047 191.848 197.089 191.885 197.14 191.901C197.159 191.903 197.178 191.902 197.197 191.899L197.201 191.906ZM197.521 190.948C197.563 190.948 197.604 190.934 197.639 190.909C197.673 190.884 197.698 190.848 197.711 190.808L197.809 190.528C197.819 190.502 197.825 190.475 197.824 190.448C197.824 190.42 197.818 190.393 197.806 190.368C197.795 190.343 197.778 190.32 197.758 190.302C197.738 190.283 197.714 190.269 197.688 190.26C197.662 190.251 197.634 190.248 197.607 190.25C197.579 190.252 197.553 190.26 197.528 190.273C197.504 190.286 197.483 190.303 197.465 190.325C197.448 190.346 197.435 190.371 197.428 190.398C197.397 190.487 197.364 190.583 197.33 190.678C197.321 190.703 197.318 190.729 197.319 190.756C197.321 190.782 197.328 190.808 197.34 190.832C197.351 190.855 197.368 190.876 197.388 190.894C197.408 190.911 197.431 190.924 197.456 190.933C197.476 190.939 197.496 190.942 197.516 190.941L197.521 190.948ZM197.854 189.995C197.896 189.994 197.937 189.98 197.971 189.955C198.005 189.93 198.03 189.895 198.043 189.855C198.11 189.668 198.146 189.575 198.146 189.575C198.158 189.549 198.165 189.522 198.165 189.494C198.166 189.466 198.161 189.438 198.151 189.412C198.14 189.387 198.124 189.363 198.104 189.344C198.084 189.324 198.06 189.309 198.034 189.3C198.008 189.29 197.98 189.286 197.952 189.287C197.924 189.289 197.897 189.296 197.872 189.309C197.848 189.322 197.826 189.339 197.808 189.361C197.79 189.383 197.777 189.408 197.77 189.435C197.77 189.435 197.732 189.533 197.663 189.723C197.645 189.773 197.648 189.829 197.671 189.878C197.694 189.926 197.735 189.964 197.785 189.982C197.806 189.987 197.828 189.989 197.85 189.988L197.854 189.995Z" fill="white"/>
<path d="M236.203 233.193H236.215C236.242 233.191 236.268 233.184 236.292 233.173C236.315 233.161 236.337 233.145 236.354 233.125C236.372 233.105 236.385 233.082 236.394 233.057C236.403 233.032 236.406 233.005 236.404 232.979L236.395 232.818C236.389 232.766 236.363 232.719 236.323 232.686C236.284 232.653 236.233 232.637 236.181 232.64C236.129 232.643 236.081 232.667 236.046 232.705C236.011 232.743 235.992 232.793 235.993 232.844L236.003 233.004C236.006 233.055 236.028 233.103 236.065 233.138C236.103 233.173 236.152 233.193 236.203 233.193ZM236.145 232.328H236.159C236.213 232.324 236.262 232.299 236.297 232.258C236.332 232.218 236.349 232.165 236.346 232.112L236.325 231.81C236.32 231.756 236.295 231.707 236.255 231.672C236.214 231.637 236.161 231.619 236.108 231.623C236.054 231.628 236.004 231.653 235.97 231.693C235.935 231.734 235.917 231.787 235.921 231.84L235.944 232.141C235.948 232.191 235.97 232.238 236.006 232.272C236.042 232.306 236.09 232.326 236.14 232.328H236.145ZM236.068 231.322H236.085C236.138 231.318 236.187 231.292 236.222 231.252C236.257 231.211 236.274 231.159 236.27 231.105L236.245 230.803C236.24 230.75 236.215 230.7 236.174 230.666C236.133 230.631 236.08 230.614 236.027 230.619C235.974 230.623 235.924 230.649 235.89 230.69C235.855 230.73 235.839 230.783 235.843 230.837L235.868 231.138C235.872 231.188 235.895 231.235 235.932 231.269C235.969 231.303 236.018 231.322 236.068 231.322ZM235.983 230.319H236C236.026 230.316 236.052 230.309 236.075 230.297C236.099 230.284 236.12 230.268 236.137 230.247C236.154 230.227 236.167 230.204 236.175 230.178C236.183 230.153 236.185 230.127 236.183 230.1L236.155 229.798C236.153 229.772 236.145 229.746 236.133 229.722C236.121 229.699 236.104 229.678 236.084 229.661C236.064 229.644 236.04 229.632 236.015 229.624C235.99 229.616 235.963 229.613 235.937 229.616C235.883 229.621 235.834 229.647 235.8 229.688C235.765 229.729 235.749 229.782 235.753 229.836L235.781 230.135C235.786 230.186 235.809 230.233 235.846 230.267C235.883 230.301 235.932 230.32 235.983 230.32V230.319ZM235.889 229.315H235.909C235.962 229.31 236.011 229.283 236.045 229.242C236.079 229.201 236.095 229.148 236.091 229.095L236.061 228.793C236.056 228.739 236.03 228.69 235.988 228.657C235.947 228.623 235.893 228.607 235.84 228.612C235.787 228.617 235.738 228.644 235.704 228.685C235.67 228.727 235.654 228.78 235.66 228.833L235.689 229.133C235.694 229.183 235.717 229.229 235.754 229.262C235.791 229.296 235.839 229.315 235.889 229.315ZM235.788 228.311H235.809C235.836 228.308 235.861 228.301 235.885 228.288C235.908 228.275 235.928 228.258 235.945 228.238C235.962 228.217 235.974 228.194 235.982 228.168C235.989 228.143 235.991 228.116 235.989 228.09L235.958 227.789C235.955 227.762 235.947 227.737 235.934 227.714C235.921 227.69 235.904 227.67 235.884 227.653C235.863 227.636 235.839 227.624 235.814 227.617C235.788 227.609 235.762 227.607 235.735 227.61C235.709 227.612 235.683 227.621 235.66 227.633C235.637 227.646 235.616 227.663 235.599 227.684C235.583 227.704 235.57 227.728 235.563 227.754C235.555 227.779 235.553 227.806 235.556 227.832L235.588 228.132C235.594 228.181 235.617 228.227 235.654 228.26C235.691 228.293 235.739 228.311 235.788 228.311ZM235.681 227.309H235.703C235.756 227.303 235.805 227.276 235.838 227.234C235.871 227.192 235.887 227.139 235.881 227.086L235.847 226.785C235.845 226.758 235.837 226.732 235.824 226.708C235.812 226.685 235.795 226.664 235.774 226.647C235.753 226.63 235.729 226.617 235.703 226.609C235.677 226.602 235.65 226.599 235.623 226.603C235.596 226.606 235.571 226.614 235.547 226.627C235.524 226.641 235.503 226.658 235.487 226.68C235.47 226.701 235.458 226.725 235.451 226.751C235.445 226.777 235.443 226.805 235.447 226.831L235.48 227.131C235.486 227.18 235.509 227.225 235.546 227.258C235.583 227.291 235.631 227.309 235.681 227.309ZM235.564 226.308H235.59C235.643 226.301 235.691 226.274 235.724 226.232C235.757 226.19 235.772 226.137 235.766 226.084L235.73 225.783C235.723 225.73 235.696 225.681 235.654 225.648C235.612 225.615 235.559 225.6 235.506 225.606C235.452 225.613 235.404 225.64 235.371 225.682C235.338 225.724 235.323 225.777 235.329 225.83L235.366 226.13C235.371 226.179 235.394 226.224 235.431 226.257C235.468 226.289 235.515 226.308 235.564 226.308ZM235.444 225.307H235.468C235.494 225.303 235.519 225.295 235.543 225.282C235.566 225.269 235.586 225.252 235.602 225.231C235.619 225.21 235.631 225.187 235.638 225.161C235.645 225.136 235.647 225.109 235.644 225.083L235.606 224.782C235.603 224.755 235.595 224.73 235.581 224.707C235.568 224.684 235.551 224.664 235.53 224.647C235.509 224.631 235.485 224.619 235.459 224.612C235.434 224.605 235.407 224.603 235.381 224.607C235.355 224.61 235.329 224.618 235.306 224.632C235.283 224.645 235.263 224.662 235.247 224.683C235.231 224.704 235.219 224.728 235.212 224.753C235.205 224.779 235.203 224.806 235.206 224.832L235.244 225.132C235.25 225.179 235.274 225.223 235.31 225.255C235.346 225.287 235.392 225.305 235.44 225.307H235.444ZM235.315 224.306H235.342C235.395 224.299 235.443 224.271 235.475 224.229C235.508 224.187 235.522 224.133 235.515 224.08L235.476 223.779C235.469 223.726 235.441 223.678 235.399 223.645C235.378 223.629 235.354 223.618 235.328 223.611C235.302 223.604 235.276 223.602 235.249 223.606C235.223 223.609 235.198 223.618 235.175 223.631C235.152 223.644 235.132 223.662 235.116 223.683C235.099 223.704 235.088 223.728 235.081 223.754C235.074 223.779 235.072 223.806 235.076 223.832L235.116 224.132C235.124 224.179 235.148 224.222 235.185 224.253C235.221 224.284 235.267 224.3 235.315 224.3V224.306ZM235.182 223.306H235.209C235.235 223.303 235.26 223.294 235.283 223.281C235.306 223.267 235.326 223.25 235.342 223.229C235.358 223.207 235.37 223.183 235.377 223.158C235.383 223.132 235.385 223.105 235.381 223.079L235.34 222.78C235.338 222.752 235.33 222.726 235.317 222.702C235.304 222.678 235.287 222.657 235.265 222.64C235.244 222.623 235.219 222.61 235.193 222.603C235.167 222.596 235.139 222.594 235.112 222.597C235.085 222.601 235.059 222.61 235.036 222.624C235.012 222.638 234.992 222.657 234.976 222.679C234.96 222.701 234.949 222.727 234.943 222.753C234.937 222.78 234.936 222.807 234.941 222.834L234.982 223.134C234.989 223.182 235.013 223.226 235.05 223.257C235.087 223.289 235.134 223.306 235.182 223.306ZM235.042 222.305H235.07C235.123 222.297 235.171 222.269 235.203 222.226C235.236 222.184 235.25 222.13 235.242 222.077L235.199 221.776C235.191 221.723 235.163 221.676 235.12 221.644C235.077 221.612 235.024 221.598 234.971 221.605C234.944 221.609 234.919 221.617 234.896 221.631C234.873 221.644 234.854 221.662 234.838 221.683C234.822 221.705 234.81 221.729 234.804 221.755C234.797 221.78 234.796 221.807 234.8 221.833L234.842 222.133C234.849 222.181 234.874 222.224 234.91 222.256C234.947 222.288 234.994 222.305 235.042 222.305ZM234.902 221.304H234.932C234.985 221.296 235.032 221.267 235.064 221.224C235.096 221.181 235.11 221.127 235.102 221.074L235.058 220.775C235.05 220.722 235.021 220.674 234.978 220.642C234.935 220.61 234.882 220.597 234.829 220.605C234.776 220.613 234.728 220.641 234.696 220.684C234.664 220.727 234.651 220.781 234.659 220.834L234.703 221.133C234.71 221.18 234.733 221.223 234.769 221.254C234.804 221.285 234.849 221.303 234.897 221.304H234.902ZM234.752 220.306C234.763 220.307 234.773 220.307 234.783 220.306C234.836 220.298 234.883 220.269 234.915 220.226C234.946 220.183 234.959 220.129 234.951 220.076L234.905 219.777C234.894 219.727 234.864 219.683 234.822 219.654C234.78 219.625 234.728 219.613 234.677 219.621C234.627 219.629 234.581 219.656 234.549 219.696C234.518 219.736 234.503 219.787 234.507 219.838L234.554 220.138C234.561 220.183 234.584 220.224 234.617 220.254C234.651 220.285 234.694 220.303 234.74 220.306H234.752ZM234.597 219.309H234.629C234.682 219.3 234.729 219.271 234.76 219.228C234.792 219.185 234.805 219.131 234.797 219.078L234.75 218.778C234.741 218.726 234.712 218.678 234.668 218.647C234.625 218.615 234.571 218.603 234.518 218.611C234.465 218.62 234.418 218.649 234.386 218.692C234.355 218.736 234.342 218.79 234.351 218.843L234.398 219.141C234.406 219.187 234.429 219.229 234.465 219.26C234.5 219.29 234.545 219.308 234.591 219.309H234.597ZM234.437 218.315H234.47C234.522 218.306 234.569 218.277 234.601 218.234C234.632 218.191 234.645 218.137 234.636 218.084L234.589 217.786C234.58 217.733 234.551 217.686 234.507 217.654C234.464 217.623 234.41 217.61 234.357 217.619C234.304 217.627 234.257 217.656 234.225 217.7C234.194 217.743 234.181 217.797 234.19 217.85L234.239 218.148C234.247 218.194 234.271 218.236 234.306 218.266C234.341 218.296 234.385 218.314 234.432 218.315H234.437ZM234.274 217.322H234.307C234.333 217.318 234.358 217.309 234.381 217.295C234.403 217.281 234.423 217.262 234.438 217.241C234.454 217.219 234.465 217.195 234.471 217.169C234.476 217.143 234.477 217.116 234.472 217.09L234.423 216.793C234.419 216.767 234.409 216.742 234.395 216.72C234.381 216.697 234.363 216.678 234.341 216.662C234.32 216.647 234.295 216.636 234.27 216.63C234.244 216.624 234.217 216.624 234.191 216.628C234.165 216.632 234.14 216.642 234.117 216.656C234.095 216.67 234.075 216.688 234.06 216.71C234.044 216.731 234.033 216.756 234.028 216.782C234.022 216.808 234.021 216.834 234.026 216.86L234.075 217.157C234.083 217.203 234.107 217.244 234.142 217.274C234.177 217.304 234.222 217.321 234.268 217.322H234.274ZM234.106 216.333H234.141C234.167 216.328 234.192 216.318 234.214 216.304C234.236 216.29 234.256 216.271 234.271 216.25C234.286 216.228 234.297 216.203 234.303 216.178C234.308 216.152 234.309 216.125 234.304 216.099L234.254 215.801C234.245 215.748 234.215 215.701 234.171 215.67C234.128 215.639 234.074 215.627 234.021 215.636C233.968 215.645 233.921 215.675 233.89 215.719C233.859 215.762 233.847 215.817 233.856 215.869L233.907 216.167C233.915 216.213 233.939 216.254 233.974 216.284C234.009 216.314 234.054 216.331 234.1 216.333H234.106ZM233.933 215.339H233.968C234.021 215.329 234.068 215.299 234.098 215.255C234.129 215.212 234.141 215.158 234.132 215.105L234.079 214.807C234.076 214.779 234.067 214.753 234.053 214.73C234.039 214.706 234.021 214.685 233.998 214.669C233.976 214.653 233.951 214.641 233.925 214.635C233.898 214.629 233.87 214.628 233.843 214.633C233.816 214.638 233.79 214.648 233.768 214.663C233.745 214.678 233.725 214.698 233.71 214.721C233.695 214.744 233.685 214.77 233.68 214.797C233.676 214.824 233.676 214.851 233.683 214.878L233.735 215.175C233.743 215.22 233.767 215.262 233.802 215.292C233.837 215.322 233.881 215.339 233.928 215.34L233.933 215.339ZM233.756 214.346H233.792C233.844 214.336 233.891 214.307 233.921 214.263C233.952 214.219 233.964 214.165 233.954 214.112L233.901 213.814C233.891 213.762 233.861 213.715 233.817 213.685C233.773 213.655 233.719 213.643 233.666 213.652C233.613 213.661 233.567 213.691 233.536 213.735C233.506 213.779 233.494 213.833 233.504 213.885L233.558 214.184C233.567 214.229 233.591 214.269 233.625 214.299C233.66 214.328 233.704 214.345 233.75 214.346H233.756ZM233.575 213.355C233.587 213.356 233.599 213.356 233.611 213.355C233.638 213.35 233.662 213.34 233.685 213.326C233.707 213.311 233.726 213.293 233.741 213.271C233.757 213.249 233.767 213.225 233.773 213.199C233.778 213.173 233.779 213.146 233.774 213.12L233.718 212.823C233.706 212.772 233.676 212.728 233.632 212.699C233.589 212.671 233.536 212.66 233.485 212.669C233.434 212.679 233.388 212.708 233.358 212.75C233.327 212.792 233.314 212.844 233.322 212.896L233.378 213.194C233.386 213.238 233.41 213.279 233.445 213.308C233.48 213.337 233.524 213.354 233.569 213.355H233.575ZM233.39 212.364H233.428C233.48 212.353 233.527 212.323 233.557 212.279C233.587 212.235 233.598 212.181 233.589 212.128L233.533 211.83C233.523 211.778 233.492 211.731 233.448 211.701C233.404 211.671 233.35 211.66 233.297 211.67C233.245 211.68 233.198 211.71 233.168 211.755C233.138 211.799 233.127 211.853 233.137 211.906L233.193 212.203C233.202 212.247 233.226 212.287 233.261 212.317C233.295 212.346 233.339 212.362 233.385 212.364H233.39ZM233.201 211.372H233.24C233.266 211.368 233.291 211.358 233.313 211.343C233.335 211.329 233.354 211.31 233.369 211.288C233.384 211.266 233.394 211.242 233.4 211.216C233.405 211.19 233.405 211.163 233.4 211.137L233.343 210.84C233.338 210.814 233.328 210.79 233.313 210.767C233.298 210.745 233.28 210.726 233.258 210.711C233.236 210.697 233.211 210.686 233.185 210.681C233.159 210.675 233.133 210.675 233.107 210.68C233.081 210.685 233.056 210.695 233.034 210.71C233.012 210.724 232.993 210.743 232.978 210.765C232.963 210.787 232.952 210.811 232.947 210.837C232.942 210.863 232.941 210.89 232.946 210.916L233.004 211.213C233.013 211.258 233.038 211.298 233.074 211.327C233.109 211.356 233.155 211.372 233.201 211.372ZM233.009 210.383C233.022 210.384 233.036 210.384 233.049 210.383C233.075 210.378 233.099 210.367 233.121 210.353C233.144 210.338 233.163 210.319 233.177 210.297C233.192 210.275 233.203 210.251 233.208 210.225C233.213 210.199 233.213 210.172 233.208 210.146L233.149 209.849C233.139 209.797 233.108 209.75 233.064 209.721C233.019 209.691 232.965 209.68 232.912 209.69C232.86 209.701 232.813 209.732 232.783 209.776C232.754 209.821 232.743 209.875 232.753 209.928L232.812 210.224C232.822 210.268 232.846 210.308 232.881 210.337C232.915 210.365 232.959 210.381 233.004 210.383H233.009ZM232.813 209.393H232.854C232.906 209.382 232.952 209.351 232.982 209.306C233.012 209.262 233.022 209.207 233.012 209.155L232.952 208.858C232.948 208.831 232.938 208.805 232.924 208.782C232.909 208.759 232.89 208.739 232.868 208.724C232.846 208.708 232.82 208.697 232.794 208.692C232.767 208.686 232.74 208.686 232.713 208.691C232.686 208.697 232.661 208.707 232.638 208.723C232.616 208.738 232.597 208.758 232.582 208.781C232.568 208.804 232.558 208.83 232.554 208.857C232.549 208.884 232.551 208.911 232.557 208.938L232.616 209.235C232.626 209.279 232.65 209.318 232.685 209.347C232.719 209.375 232.763 209.392 232.808 209.393H232.813ZM232.615 208.404H232.655C232.681 208.399 232.706 208.389 232.728 208.375C232.75 208.36 232.769 208.341 232.783 208.319C232.798 208.297 232.808 208.272 232.813 208.246C232.818 208.22 232.817 208.194 232.812 208.168L232.752 207.871C232.739 207.821 232.708 207.777 232.664 207.749C232.62 207.722 232.567 207.712 232.516 207.722C232.465 207.733 232.42 207.762 232.391 207.805C232.361 207.847 232.349 207.9 232.357 207.951L232.417 208.248C232.427 208.291 232.451 208.331 232.486 208.359C232.521 208.387 232.564 208.403 232.609 208.404H232.615ZM232.412 207.424H232.454C232.506 207.413 232.551 207.382 232.58 207.337C232.609 207.293 232.62 207.239 232.609 207.186L232.547 206.89C232.542 206.864 232.532 206.839 232.517 206.817C232.502 206.796 232.483 206.777 232.461 206.762C232.439 206.748 232.414 206.738 232.388 206.733C232.363 206.728 232.336 206.728 232.31 206.734C232.284 206.739 232.26 206.749 232.238 206.764C232.216 206.779 232.197 206.798 232.183 206.82C232.168 206.842 232.158 206.867 232.153 206.892C232.148 206.918 232.149 206.945 232.154 206.971L232.214 207.268C232.225 207.31 232.25 207.348 232.285 207.375C232.32 207.402 232.362 207.417 232.406 207.417L232.412 207.424ZM232.206 206.437H232.248C232.274 206.432 232.298 206.421 232.32 206.406C232.342 206.391 232.361 206.372 232.375 206.35C232.39 206.328 232.399 206.303 232.404 206.277C232.409 206.251 232.409 206.224 232.403 206.198L232.342 205.901C232.33 205.849 232.299 205.803 232.254 205.774C232.209 205.745 232.154 205.735 232.102 205.746C232.076 205.751 232.052 205.762 232.03 205.777C232.008 205.792 231.989 205.811 231.975 205.833C231.96 205.856 231.95 205.88 231.946 205.906C231.941 205.933 231.941 205.959 231.947 205.985L232.008 206.281C232.02 206.323 232.045 206.36 232.079 206.387C232.114 206.414 232.156 206.43 232.2 206.43L232.206 206.437ZM231.997 205.457H232.039C232.091 205.446 232.137 205.414 232.166 205.37C232.195 205.325 232.205 205.27 232.195 205.218L232.13 204.921C232.116 204.872 232.084 204.829 232.04 204.802C231.996 204.776 231.943 204.767 231.893 204.778C231.843 204.789 231.799 204.819 231.769 204.861C231.74 204.904 231.729 204.956 231.737 205.007L231.8 205.302C231.813 205.343 231.838 205.379 231.873 205.404C231.907 205.43 231.949 205.443 231.992 205.443L231.997 205.457ZM231.784 204.477C231.799 204.479 231.813 204.479 231.828 204.477C231.854 204.472 231.878 204.461 231.9 204.446C231.922 204.431 231.941 204.411 231.955 204.389C231.969 204.367 231.979 204.342 231.984 204.316C231.988 204.289 231.988 204.263 231.982 204.237L231.917 203.941C231.904 203.892 231.871 203.849 231.827 203.822C231.783 203.796 231.731 203.787 231.68 203.798C231.63 203.809 231.586 203.839 231.557 203.881C231.528 203.924 231.516 203.976 231.524 204.027L231.588 204.322C231.602 204.362 231.628 204.396 231.662 204.421C231.696 204.445 231.737 204.458 231.779 204.458L231.784 204.477ZM231.569 203.497C231.583 203.499 231.598 203.499 231.612 203.497C231.638 203.492 231.663 203.481 231.685 203.466C231.706 203.451 231.725 203.431 231.739 203.409C231.754 203.387 231.763 203.362 231.768 203.336C231.773 203.309 231.772 203.283 231.766 203.257L231.7 202.961C231.687 202.911 231.655 202.868 231.61 202.841C231.566 202.813 231.513 202.805 231.462 202.816C231.411 202.827 231.367 202.857 231.338 202.901C231.309 202.944 231.298 202.997 231.307 203.048L231.373 203.343C231.388 203.382 231.414 203.415 231.448 203.438C231.482 203.461 231.522 203.473 231.563 203.472L231.569 203.497ZM231.35 202.517C231.365 202.519 231.38 202.519 231.395 202.517C231.447 202.506 231.492 202.474 231.521 202.429C231.549 202.384 231.559 202.33 231.548 202.278L231.482 201.983C231.476 201.956 231.466 201.932 231.451 201.91C231.436 201.888 231.416 201.869 231.394 201.855C231.371 201.84 231.346 201.83 231.32 201.826C231.294 201.821 231.267 201.822 231.241 201.827C231.215 201.833 231.19 201.844 231.168 201.86C231.146 201.875 231.128 201.895 231.114 201.917C231.1 201.94 231.09 201.965 231.086 201.992C231.081 202.018 231.082 202.045 231.089 202.071L231.154 202.365C231.17 202.402 231.197 202.434 231.231 202.456C231.265 202.478 231.304 202.489 231.345 202.488L231.35 202.517ZM231.129 201.537H231.174C231.2 201.531 231.224 201.52 231.246 201.505C231.267 201.49 231.286 201.47 231.3 201.448C231.314 201.425 231.323 201.4 231.328 201.374C231.332 201.348 231.331 201.321 231.325 201.295L231.259 201C231.253 200.974 231.243 200.95 231.227 200.928C231.212 200.906 231.193 200.888 231.17 200.874C231.148 200.86 231.123 200.85 231.097 200.846C231.07 200.841 231.044 200.842 231.018 200.848C230.992 200.854 230.968 200.865 230.946 200.88C230.924 200.895 230.906 200.915 230.892 200.937C230.878 200.96 230.868 200.985 230.864 201.011C230.859 201.037 230.86 201.064 230.866 201.089L230.933 201.385C230.949 201.421 230.976 201.452 231.01 201.474C231.044 201.495 231.084 201.505 231.124 201.504L231.129 201.537ZM230.905 200.557C230.92 200.559 230.935 200.559 230.95 200.557C231.002 200.545 231.047 200.513 231.075 200.468C231.104 200.423 231.113 200.369 231.101 200.317L231.033 200.021C231.028 199.994 231.018 199.968 231.003 199.945C230.988 199.922 230.969 199.902 230.946 199.887C230.923 199.872 230.897 199.861 230.87 199.856C230.843 199.851 230.815 199.852 230.788 199.858C230.761 199.864 230.736 199.876 230.714 199.892C230.692 199.909 230.673 199.929 230.659 199.953C230.646 199.977 230.637 200.003 230.634 200.031C230.63 200.058 230.633 200.086 230.641 200.112L230.708 200.406C230.725 200.442 230.752 200.472 230.786 200.492C230.821 200.513 230.86 200.523 230.9 200.521L230.905 200.557ZM230.677 199.577C230.692 199.579 230.708 199.579 230.723 199.577C230.775 199.565 230.82 199.533 230.848 199.487C230.876 199.442 230.885 199.387 230.873 199.335L230.804 199.041C230.8 199.014 230.79 198.988 230.775 198.965C230.76 198.942 230.74 198.922 230.717 198.907C230.695 198.892 230.669 198.881 230.642 198.876C230.615 198.871 230.587 198.872 230.56 198.878C230.533 198.884 230.508 198.896 230.486 198.912C230.464 198.929 230.445 198.949 230.431 198.973C230.417 198.997 230.409 199.023 230.405 199.051C230.402 199.078 230.405 199.106 230.412 199.132L230.481 199.428C230.499 199.463 230.526 199.492 230.56 199.511C230.594 199.531 230.632 199.54 230.671 199.538L230.677 199.577ZM230.446 198.597C230.462 198.599 230.478 198.599 230.494 198.597C230.546 198.585 230.591 198.552 230.619 198.506C230.647 198.461 230.656 198.406 230.643 198.354L230.573 198.06C230.568 198.033 230.557 198.009 230.542 197.986C230.526 197.964 230.507 197.946 230.484 197.931C230.461 197.917 230.436 197.907 230.409 197.903C230.383 197.898 230.355 197.899 230.329 197.906C230.303 197.912 230.278 197.923 230.257 197.939C230.235 197.955 230.217 197.975 230.203 197.998C230.189 198.022 230.18 198.047 230.176 198.074C230.173 198.1 230.174 198.128 230.181 198.154L230.25 198.448C230.268 198.482 230.295 198.511 230.329 198.53C230.363 198.55 230.402 198.559 230.44 198.557L230.446 198.597ZM230.214 197.617C230.229 197.619 230.244 197.619 230.26 197.617C230.312 197.604 230.356 197.572 230.384 197.526C230.412 197.481 230.421 197.426 230.41 197.374L230.338 197.08C230.325 197.029 230.292 196.986 230.247 196.959C230.201 196.932 230.148 196.923 230.096 196.936C230.045 196.948 230.001 196.98 229.973 197.024C229.945 197.069 229.935 197.122 229.946 197.174L230.018 197.468C230.035 197.502 230.063 197.531 230.097 197.55C230.131 197.569 230.169 197.578 230.208 197.575L230.214 197.617ZM229.977 196.637C229.993 196.639 230.009 196.639 230.025 196.637C230.076 196.624 230.121 196.592 230.149 196.546C230.177 196.5 230.185 196.446 230.173 196.394L230.1 196.1C230.096 196.072 230.086 196.046 230.07 196.023C230.055 196 230.036 195.98 230.012 195.964C229.989 195.949 229.963 195.939 229.936 195.934C229.909 195.929 229.88 195.93 229.854 195.937C229.827 195.943 229.801 195.955 229.779 195.972C229.757 195.989 229.739 196.01 229.725 196.034C229.712 196.059 229.703 196.085 229.701 196.113C229.698 196.141 229.701 196.169 229.71 196.195L229.781 196.489C229.799 196.523 229.827 196.551 229.861 196.569C229.895 196.588 229.933 196.597 229.971 196.594L229.977 196.637ZM229.736 195.657C229.752 195.659 229.769 195.659 229.785 195.657C229.836 195.643 229.878 195.61 229.905 195.564C229.931 195.519 229.938 195.465 229.925 195.414L229.854 195.12C229.841 195.068 229.808 195.023 229.762 194.995C229.74 194.982 229.714 194.973 229.688 194.969C229.662 194.965 229.635 194.966 229.609 194.972C229.584 194.978 229.559 194.99 229.538 195.006C229.517 195.021 229.499 195.041 229.485 195.064C229.471 195.086 229.462 195.112 229.458 195.138C229.454 195.164 229.455 195.191 229.462 195.216L229.535 195.51C229.554 195.545 229.582 195.573 229.617 195.592C229.652 195.61 229.691 195.618 229.731 195.614L229.736 195.657ZM229.494 194.677C229.51 194.679 229.527 194.679 229.543 194.677C229.593 194.663 229.636 194.63 229.662 194.584C229.689 194.539 229.696 194.485 229.683 194.434L229.609 194.14C229.594 194.089 229.561 194.047 229.515 194.02C229.47 193.994 229.416 193.987 229.365 194C229.315 194.015 229.272 194.048 229.246 194.094C229.22 194.14 229.212 194.194 229.225 194.245L229.299 194.539C229.319 194.571 229.347 194.597 229.38 194.614C229.414 194.631 229.451 194.638 229.488 194.635L229.494 194.677ZM229.248 193.697C229.264 193.699 229.281 193.699 229.298 193.697C229.349 193.683 229.392 193.65 229.418 193.604C229.445 193.558 229.452 193.503 229.438 193.452L229.364 193.16C229.358 193.134 229.347 193.109 229.331 193.087C229.315 193.065 229.295 193.046 229.272 193.032C229.25 193.018 229.224 193.009 229.197 193.005C229.171 193.001 229.144 193.002 229.117 193.009C229.091 193.015 229.067 193.027 229.045 193.044C229.024 193.06 229.006 193.08 228.992 193.104C228.979 193.127 228.97 193.153 228.967 193.179C228.964 193.206 228.966 193.233 228.973 193.259L229.047 193.552C229.066 193.586 229.094 193.615 229.129 193.633C229.164 193.652 229.203 193.66 229.242 193.657L229.248 193.697ZM229 192.717C229.016 192.717 229.033 192.715 229.049 192.71C229.1 192.696 229.143 192.663 229.169 192.617C229.196 192.571 229.203 192.516 229.189 192.465L229.113 192.173C229.099 192.122 229.065 192.079 229.02 192.053C228.974 192.027 228.92 192.02 228.87 192.032C228.819 192.045 228.775 192.078 228.747 192.122C228.72 192.167 228.711 192.221 228.723 192.272L228.798 192.566C228.816 192.603 228.845 192.634 228.881 192.654C228.917 192.674 228.959 192.682 229 192.678V192.717ZM228.746 191.737C228.763 191.737 228.78 191.735 228.797 191.73C228.848 191.716 228.891 191.682 228.917 191.636C228.944 191.59 228.951 191.535 228.937 191.484L228.861 191.191C228.848 191.14 228.814 191.095 228.768 191.068C228.722 191.041 228.667 191.034 228.615 191.047C228.563 191.061 228.519 191.094 228.492 191.141C228.465 191.187 228.457 191.242 228.471 191.294L228.548 191.586C228.565 191.622 228.592 191.653 228.627 191.673C228.661 191.694 228.701 191.703 228.741 191.701L228.746 191.737ZM228.489 190.757C228.506 190.757 228.524 190.755 228.541 190.75C228.591 190.736 228.635 190.702 228.661 190.656C228.687 190.61 228.694 190.555 228.681 190.504L228.602 190.21C228.596 190.184 228.584 190.159 228.568 190.138C228.552 190.116 228.532 190.098 228.509 190.085C228.486 190.071 228.46 190.062 228.433 190.059C228.407 190.055 228.38 190.057 228.354 190.064C228.328 190.071 228.304 190.083 228.283 190.099C228.262 190.116 228.244 190.136 228.231 190.16C228.218 190.183 228.209 190.209 228.206 190.236C228.203 190.262 228.205 190.289 228.213 190.315L228.29 190.606C228.307 190.643 228.334 190.673 228.369 190.694C228.403 190.715 228.443 190.726 228.483 190.724L228.489 190.757ZM228.227 189.777C228.245 189.78 228.263 189.78 228.28 189.777C228.331 189.763 228.375 189.728 228.401 189.682C228.427 189.636 228.434 189.581 228.42 189.53L228.339 189.234C228.332 189.209 228.32 189.185 228.304 189.164C228.287 189.143 228.267 189.125 228.244 189.112C228.221 189.099 228.195 189.091 228.169 189.088C228.143 189.084 228.116 189.086 228.09 189.094C228.065 189.101 228.041 189.113 228.02 189.129C227.999 189.145 227.982 189.166 227.969 189.189C227.956 189.212 227.947 189.237 227.944 189.263C227.941 189.29 227.943 189.316 227.95 189.342L228.031 189.636C228.049 189.671 228.076 189.7 228.11 189.719C228.144 189.738 228.182 189.748 228.221 189.745L228.227 189.777Z" fill="white"/>
<path d="M138.763 191.723C142.251 194.428 146.514 195.945 150.928 196.052C155.341 196.16 159.672 194.851 163.288 192.318L164.138 191.723C164.558 192.23 172.693 200.693 177.289 211.132C177.414 211.416 177.466 211.727 177.444 212.037C177.421 212.347 177.323 212.646 177.158 212.91C176.356 214.205 174.678 216.562 172.604 217.518C172.231 217.688 171.814 217.734 171.414 217.649C171.013 217.564 170.651 217.353 170.379 217.047C168.839 215.322 165.459 211.447 163.877 209.067C163.877 209.067 166.638 224.303 167.377 230.538C167.484 231.439 167.237 232.346 166.689 233.068C166.141 233.79 165.333 234.271 164.437 234.409C155.37 235.847 146.624 236.056 138.333 234.51C137.459 234.349 136.679 233.86 136.151 233.144C135.624 232.429 135.389 231.539 135.494 230.656C136.216 224.443 139.012 209.067 139.012 209.067C137.43 211.447 134.046 215.315 132.512 217.047C132.24 217.353 131.878 217.564 131.477 217.649C131.077 217.734 130.66 217.688 130.287 217.518C128.211 216.562 126.534 214.205 125.732 212.91C125.567 212.646 125.469 212.346 125.447 212.037C125.424 211.727 125.477 211.416 125.601 211.132C130.209 200.693 138.341 192.23 138.763 191.723Z" fill="white"/>
<path d="M134.728 196.45C136.92 193.688 138.579 191.945 138.763 191.723C142.251 194.428 146.514 195.945 150.928 196.052C155.341 196.16 159.672 194.851 163.288 192.318L164.138 191.723C164.306 191.925 165.69 193.382 167.587 195.72C163.694 198.578 152.486 204.603 134.728 196.45Z" fill="#19D791"/>
<path d="M135.817 228.275C136.171 225.767 136.678 222.623 137.185 219.607C148.96 221.471 158.484 221.125 165.774 219.977C166.28 222.995 166.778 226.11 167.121 228.553C159.42 229.949 149.001 230.489 135.817 228.275Z" fill="#19D791"/>
<path d="M138.42 212.414C138.777 210.392 139.016 209.074 139.016 209.074C138.448 209.926 137.647 210.972 136.776 212.043C133.324 211.223 129.916 210.23 126.563 209.068C127.766 206.66 129.117 204.33 130.61 202.09C152.893 210.875 167.151 205.771 172.727 202.802C174.28 205.184 175.665 207.671 176.874 210.245C174.751 211.204 171.485 212.41 167.099 213.264C165.874 211.794 164.647 210.25 163.863 209.074C163.863 209.074 164.205 210.961 164.681 213.678C158.066 214.665 149.289 214.78 138.42 212.414Z" fill="#19D791"/>
<path d="M100.802 205.666L113.314 226.893C113.797 227.707 114.011 228.653 113.926 229.596C113.841 230.539 113.461 231.432 112.841 232.147C110.645 234.667 106.699 238.009 101.361 237.811C92.8533 237.496 90.6463 232.847 81.1123 236.472C71.5783 240.096 66.8323 231.454 63.4723 231.35C63.0983 231.339 62.7723 231.331 62.4773 231.327C62.2863 231.323 62.0993 231.267 61.9373 231.166C61.7743 231.065 61.6423 230.922 61.5543 230.752C61.4663 230.583 61.4263 230.392 61.4373 230.201C61.4493 230.01 61.5113 229.826 61.6193 229.668L77.4023 206.38L100.802 205.666Z" fill="#19D791"/>
<path d="M100.802 205.12L101.171 204.213L106.475 191.175C106.475 191.175 101.197 189.363 98.7541 189.363C98.7541 189.363 88.7481 192.671 80.2391 189.363C80.2391 189.363 74.6391 190.071 72.5181 191.49L77.6391 205.435L100.802 205.12Z" fill="#19D791"/>
<path d="M101.608 207.034L101.354 204.011C101.354 204.011 87.8232 206.059 77.1772 204.169L76.9312 207.249C76.9312 207.249 86.5792 211.396 101.608 207.034Z" fill="#00C079"/>
<path d="M5.03021 145.605C4.91821 145.323 4.86421 145.021 4.87121 144.718C4.87921 144.414 4.9472 144.116 5.0722 143.839C8.8522 135.52 22.3922 105.738 22.8892 105.384C23.4682 104.964 41.6632 89.1622 41.6632 89.1622C45.0142 86.2516 46.0782 89.0698 46.0782 89.0698L53.0202 117.95L35.0812 156.222C34.8372 156.744 34.4032 157.151 33.8672 157.362C33.3312 157.572 32.7352 157.568 32.2022 157.352L6.2752 146.852C5.9942 146.738 5.74021 146.569 5.52621 146.355C5.31221 146.141 5.14321 145.886 5.03021 145.605ZM43.8642 99.5964C44.3792 99.2291 44.7732 98.7173 44.9982 98.1257C45.2222 97.5341 45.2662 96.8892 45.1242 96.2727C44.9812 95.6562 44.6602 95.0957 44.1992 94.6621C43.7382 94.2285 43.1592 93.9412 42.5352 93.8366C41.9112 93.7321 41.2702 93.8149 40.6932 94.0747C40.1162 94.3344 39.6292 94.7594 39.2942 95.2959C38.9592 95.8324 38.7902 96.4563 38.8092 97.0887C38.8282 97.7211 39.0342 98.3337 39.4022 98.8488C39.6462 99.191 39.9542 99.4818 40.3112 99.7046C40.6672 99.9274 41.0632 100.078 41.4782 100.147C41.8922 100.217 42.3162 100.204 42.7252 100.109C43.1352 100.015 43.5222 99.8405 43.8642 99.5964Z" fill="#5FE0BB"/>
<path d="M34.3142 125.277C31.8572 129.541 32.4552 132.746 34.4952 133.922C36.5822 135.123 39.5352 133.922 41.7972 130.042C44.0042 126.213 43.8272 122.754 41.5342 121.434C39.1722 120.073 36.4112 121.634 34.3142 125.277ZM29.5542 142.394L32.9562 116.494L31.3522 115.57L27.9482 141.47L29.5542 142.394ZM39.7202 128.68C38.3982 131.029 36.7922 132.384 35.6692 131.738C34.5472 131.091 34.9272 129.155 36.3442 126.698C37.6352 124.458 39.1332 122.918 40.3482 123.618C41.4892 124.269 41.0232 126.404 39.7202 128.68ZM19.2052 127.771C16.7682 132.005 17.3242 135.228 19.3892 136.416C21.4542 137.605 24.4292 136.416 26.6852 132.496C28.8722 128.698 28.7142 125.208 26.4452 123.9C24.0772 122.533 21.2982 124.124 19.2002 127.767L19.2052 127.771ZM24.5992 131.166C23.2962 133.483 21.6722 134.871 20.5492 134.224C19.4032 133.563 19.8072 131.641 21.2242 129.184C22.5332 126.912 24.0132 125.404 25.2282 126.104C26.3762 126.758 25.9102 128.894 24.5992 131.166Z" fill="white"/>
<path d="M43.1992 97.5846C43.4602 97.555 43.7072 97.4489 43.9082 97.2795C44.1092 97.1101 44.2552 96.885 44.3292 96.6326C44.4232 96.312 46.7582 88.7296 55.8892 86.1466C56.2242 86.0467 56.5072 85.8186 56.6762 85.5117C56.8452 85.2047 56.8862 84.8436 56.7912 84.5065C56.6962 84.1694 56.4712 83.8833 56.1672 83.7103C55.8622 83.5372 55.5022 83.4911 55.1632 83.5818C44.5652 86.5792 41.8772 95.5112 41.7682 95.8906C41.7082 96.1013 41.7012 96.3235 41.7472 96.5377C41.7932 96.7519 41.8912 96.9515 42.0322 97.1189C42.1742 97.2862 42.3542 97.4163 42.5572 97.4975C42.7612 97.5787 42.9812 97.6086 43.1992 97.5846Z" fill="#F1F1F1"/>
<path d="M82.5483 151.314L97.2263 155.2L99.4553 155.788C99.4553 155.788 99.7353 155.399 100.272 154.668C100.528 154.299 100.881 153.862 101.289 153.345C101.696 152.829 102.187 152.243 102.743 151.59C104.113 150.009 105.57 148.506 107.106 147.086C109.16 145.189 111.343 143.436 113.639 141.84C116.46 139.888 119.421 138.149 122.5 136.638C124.18 135.841 125.926 135.032 127.782 134.325L128.482 134.045C128.717 133.958 128.957 133.874 129.192 133.787L130.62 133.268C131.6 132.957 132.567 132.607 133.577 132.323C137.763 131.073 142.046 130.176 146.383 129.643C148.623 129.363 150.907 129.199 153.209 129.097L154.941 129.061C155.221 129.061 155.526 129.043 155.803 129.043L156.643 129.05H157.483C157.763 129.05 158.031 129.05 158.355 129.066L160.22 129.141L160.455 129.149L160.58 129.093L160.619 129.034H160.647L161.045 129.118L161.914 129.208C162.494 129.247 163.076 129.293 163.652 129.358L165.388 129.531C165.966 129.605 166.54 129.682 167.115 129.754C169.414 130.065 171.695 130.454 173.926 130.955L174.766 131.138L175.595 131.344C176.145 131.484 176.7 131.614 177.246 131.764C178.333 132.072 179.423 132.362 180.482 132.711C181.552 133.028 182.582 133.411 183.631 133.765C184.146 133.954 184.653 134.151 185.161 134.344L185.924 134.634L186.668 134.945C188.671 135.749 190.565 136.659 192.401 137.587C193.306 138.067 194.208 138.533 195.061 139.037C195.913 139.541 196.766 140.044 197.596 140.546C200.644 142.456 203.536 144.602 206.247 146.965C208.489 148.921 210.587 151.037 212.523 153.296C213.983 155.01 215.347 156.805 216.607 158.671C217.116 159.445 217.587 160.138 217.937 160.747C218.287 161.356 218.624 161.867 218.858 162.316C218.984 162.546 219.095 162.747 219.191 162.918C219.391 163.282 219.869 163.478 220.332 163.401C220.396 163.392 220.459 163.378 220.521 163.358L220.599 163.331C221.115 163.162 221.378 162.689 221.196 162.256C221.123 162.077 221.035 161.87 220.935 161.632C220.756 161.18 220.482 160.611 220.168 159.952C219.855 159.292 219.468 158.528 219.037 157.685C217.953 155.649 216.752 153.678 215.44 151.78C213.677 149.25 211.727 146.855 209.607 144.616C207.005 141.87 204.182 139.342 201.167 137.056C200.34 136.443 199.511 135.813 198.625 135.218C197.76 134.602 196.843 134.018 195.917 133.425C194.048 132.263 192.094 131.11 190.005 130.058C189.746 129.925 189.489 129.789 189.227 129.656L188.43 129.271C187.897 129.016 187.363 128.753 186.822 128.502C185.724 128.021 184.626 127.515 183.483 127.07C182.363 126.595 181.189 126.177 180.02 125.743C179.432 125.534 178.836 125.34 178.238 125.137L177.341 124.838L176.432 124.558C174.007 123.798 171.501 123.168 168.956 122.617L167.038 122.222L165.103 121.879C164.457 121.758 163.804 121.667 163.153 121.574L162.173 121.434L161.686 121.361L161.134 121.299L159.285 121.081C158.992 121.04 158.641 121.012 158.305 120.983L157.282 120.895L156.258 120.809C155.915 120.78 155.593 120.77 155.259 120.749L153.271 120.637C150.611 120.545 147.963 120.536 145.326 120.652C140.162 120.878 135.026 121.534 129.972 122.612C128.738 122.857 127.54 123.172 126.332 123.452L124.564 123.933L123.687 124.175L122.822 124.438C120.511 125.11 118.314 125.908 116.183 126.709C112.24 128.251 108.413 130.076 104.733 132.169C101.682 133.91 98.7513 135.851 95.9573 137.979C93.8443 139.593 91.8194 141.318 89.8904 143.148C89.0994 143.906 88.3923 144.584 87.8153 145.2C87.2383 145.816 86.7223 146.32 86.3413 146.764C85.5673 147.623 82.5483 151.314 82.5483 151.314Z" fill="#19D791"/>
<path d="M76.2974 150.708L83.9134 178.43L112.024 151.709L76.2974 150.708Z" fill="#19D791"/>
<path d="M201.753 265.345L189.497 261.4L187.635 260.804L186.868 261.716C186.626 262.022 186.298 262.377 185.918 262.8C185.537 263.223 185.078 263.7 184.567 264.232C183.298 265.52 181.96 266.738 180.56 267.882C178.687 269.408 176.714 270.807 174.653 272.068C172.129 273.608 169.496 274.961 166.775 276.117C165.29 276.723 163.754 277.336 162.127 277.858L161.52 278.06C161.314 278.123 161.1 278.185 160.9 278.249C160.485 278.373 160.068 278.5 159.649 278.63C158.8 278.852 157.948 279.107 157.071 279.306C153.432 280.19 149.726 280.768 145.991 281.035C144.065 281.175 142.109 281.217 140.142 281.206L138.663 281.162C138.418 281.153 138.164 281.151 137.928 281.14L137.213 281.098L136.499 281.059C136.261 281.043 136.033 281.035 135.757 281.006L134.172 280.866L133.973 280.847L133.861 280.898L133.822 280.952H133.8L133.468 280.856L132.734 280.74C132.243 280.681 131.754 280.615 131.263 280.534L129.796 280.311C129.309 280.222 128.824 280.132 128.338 280.045C126.399 279.683 124.481 279.256 122.612 278.728L121.912 278.535L121.219 278.325C120.76 278.185 120.295 278.045 119.84 277.905C118.933 277.597 118.02 277.303 117.143 276.96C116.252 276.642 115.392 276.275 114.527 275.925C114.107 275.742 113.687 275.551 113.267 275.365L112.636 275.085L112.023 274.788C110.366 274.017 108.811 273.16 107.306 272.291C106.565 271.843 105.826 271.406 105.128 270.94C104.429 270.473 103.739 270.009 103.064 269.54C100.59 267.783 98.2622 265.829 96.1032 263.697C92.9542 260.603 90.2352 257.099 88.0202 253.28C87.6352 252.598 87.2832 251.988 87.0192 251.46C86.7542 250.932 86.5052 250.48 86.3332 250.084C86.2402 249.884 86.1592 249.709 86.0882 249.557C85.9392 249.238 85.5462 249.051 85.1472 249.095C85.0922 249.101 85.0372 249.111 84.9832 249.125L84.9142 249.144C84.4652 249.266 84.2142 249.658 84.3382 250.035C84.3892 250.189 84.4512 250.371 84.5202 250.577C84.6442 250.971 84.8422 251.467 85.0672 252.047C85.2922 252.626 85.5702 253.288 85.8862 254.026C86.6812 255.808 87.5792 257.542 88.5772 259.219C89.9182 261.449 91.4272 263.573 93.0922 265.573C95.1342 268.025 97.3772 270.302 99.7992 272.379C100.466 272.939 101.132 273.51 101.849 274.059C102.566 274.608 103.291 275.159 104.041 275.704C105.559 276.775 107.152 277.84 108.864 278.827C109.076 278.952 109.284 279.079 109.501 279.204C109.718 279.328 109.937 279.446 110.155 279.565C110.595 279.806 111.032 280.054 111.477 280.29C112.381 280.748 113.284 281.227 114.23 281.655C115.16 282.107 116.127 282.515 117.096 282.935C117.583 283.138 118.076 283.33 118.576 283.528L119.321 283.821L120.077 284.101C122.094 284.853 124.189 285.501 126.322 286.078L127.931 286.498L129.558 286.873C130.102 287.005 130.651 287.11 131.2 287.217L132.026 287.383L132.436 287.465L132.902 287.542L134.463 287.808C134.71 287.856 135.008 287.894 135.295 287.934L136.162 288.053L137.027 288.171C137.317 288.21 137.587 288.232 137.867 288.265L139.555 288.447C141.809 288.638 144.07 288.76 146.323 288.777C150.745 288.806 155.161 288.469 159.528 287.769C160.594 287.614 161.636 287.394 162.676 287.209L164.216 286.876L164.979 286.708L165.731 286.52C167.743 286.047 169.665 285.463 171.531 284.872C174.992 283.729 178.367 282.342 181.632 280.721C184.341 279.369 186.96 277.843 189.472 276.152C191.379 274.86 193.217 273.47 194.98 271.988C195.702 271.375 196.349 270.829 196.878 270.329C197.407 269.829 197.882 269.416 198.233 269.061C198.947 268.359 201.753 265.345 201.753 265.345Z" fill="#19D791"/>
<path d="M207.041 266.132L202.315 242.186L176.668 263.734L207.041 266.132Z" fill="url(#paint0_linear_2189_6464)"/>
<path d="M207.041 266.132L202.315 242.186L176.668 263.734L207.041 266.132Z" fill="#19D791"/>
<path d="M12.5992 215.873C11.3392 217.224 9.47216 218.393 8.16016 219.118C10.1202 221.537 12.7662 223.961 16.2732 226.332L17.2772 228.584L20.4972 224.731C20.4972 224.731 14.7222 221.859 12.5992 215.873Z" fill="#FFD89D"/>
<path d="M29.8052 288.96C29.8072 288.89 29.8002 288.82 29.7842 288.752C28.7432 284.623 23.5743 282.051 23.5743 282.051L21.5202 282.218C20.3432 285.858 20.4942 288.088 20.6802 289.078C20.6802 289.106 20.6942 289.132 20.7012 289.16C22.3992 289.309 25.8772 289.408 29.8052 288.96Z" fill="#7B818D"/>
<path d="M20.7031 279.161L21.5691 283.338C21.5941 283.481 21.6651 283.612 21.7701 283.713C21.8741 283.814 22.0091 283.878 22.1531 283.898C22.6001 283.943 23.0511 283.936 23.4971 283.877C23.6081 283.855 23.7141 283.812 23.8081 283.75C23.9021 283.687 23.9831 283.607 24.0471 283.513C24.1101 283.419 24.1541 283.314 24.1761 283.203C24.1991 283.092 24.1991 282.978 24.1771 282.867L23.5741 279.16L20.7031 279.161Z" fill="#FFD89D"/>
<path d="M47.9482 288.778C47.9342 288.746 47.9182 288.714 47.8992 288.684C46.8032 287.153 44.0082 284.101 38.4882 282.776L35.8392 282.694C35.8392 282.694 34.6602 284.743 34.6382 288.539C35.2432 288.787 36.4132 289.053 38.6752 289.117C42.1712 289.218 46.3202 288.913 47.9482 288.778Z" fill="#7B818D"/>
<path d="M35.3491 278.68C35.3781 278.877 35.7411 281.877 35.8811 283.041C35.8921 283.17 35.9461 283.291 36.0351 283.385C36.1231 283.48 36.2401 283.542 36.3681 283.562C36.9731 283.643 37.5861 283.634 38.1881 283.534C38.3621 283.49 38.5161 283.388 38.6241 283.245C38.7321 283.102 38.7881 282.926 38.7821 282.747V278.037L35.3491 278.68Z" fill="#FFD89D"/>
<path d="M33.2243 223.927C33.2243 223.927 39.6133 248.202 39.4963 278.748C39.4963 279.019 39.4022 279.281 39.2312 279.491C39.0612 279.701 38.8233 279.846 38.5583 279.902C37.7553 280.07 36.5752 280.272 35.5982 280.244C35.3442 280.235 35.1023 280.139 34.9113 279.973C34.7213 279.806 34.5943 279.578 34.5523 279.328C33.6563 274.075 28.5163 244.488 25.5923 239.684C25.5923 239.684 23.6653 266.037 24.2813 279.709C24.2893 279.873 24.2352 280.033 24.1292 280.158C24.0232 280.283 23.8732 280.363 23.7102 280.382C22.9192 280.47 22.1212 280.47 21.3302 280.382C21.1382 280.363 20.9572 280.281 20.8172 280.148C20.6772 280.015 20.5863 279.838 20.5573 279.647C19.9193 275.202 16.2482 248.742 16.4042 229.683C16.4122 228.608 19.2463 223.934 19.2463 223.934L33.2243 223.927Z" fill="#A8B2BC"/>
<path d="M42.1002 194.55C41.0732 193.261 40.1682 191.879 39.3972 190.422C38.3352 188.418 39.3111 191.72 39.0211 189.456C31.0751 183.716 19.1122 186.624 14.4842 187.208C12.9672 187.401 11.5762 188.149 10.5792 189.308C6.61316 193.897 -2.08884 206.462 8.15316 219.128C9.46516 218.4 11.3272 217.234 12.5922 215.883C11.4582 212.689 11.3661 208.603 13.7401 203.601C13.8211 203.998 13.9232 204.391 14.0442 204.778C17.3172 215.146 17.4922 223.776 17.4842 225.765C17.4842 225.898 17.5241 226.028 17.5991 226.137C17.6741 226.247 17.7801 226.331 17.9041 226.379C22.2121 228.105 30.5041 227.079 33.2871 226.659C33.5321 226.621 33.7512 226.488 33.8982 226.289C34.0442 226.09 34.1062 225.841 34.0702 225.596C32.7052 215.698 39.7161 199.416 41.5681 195.338C41.6981 195.046 41.8782 194.779 42.1002 194.55Z" fill="#2187FF"/>
<path d="M21.9404 178.874L21.1104 187.355C21.1104 187.355 25.8824 188.793 29.3534 186.344L26.9134 178.634L21.9404 178.874Z" fill="#FFD89D"/>
<path d="M27.4731 169.206C27.5871 169.313 32.3191 178.606 32.3191 178.606L26.9561 181.195L21.1631 173.054C21.1631 173.054 25.5501 167.395 27.4731 169.206Z" fill="#FFD89D"/>
<path d="M23.5363 173.279C23.4893 173.401 23.4703 173.533 23.4813 173.663C23.4923 173.793 23.5333 173.919 23.6003 174.031L26.2803 178.49C26.3173 178.557 26.3643 178.619 26.4203 178.672C26.7373 178.969 27.8203 179.832 28.6693 178.657C29.3883 177.657 30.0613 176.747 30.7823 176.372C30.8833 176.321 30.9933 176.29 31.1053 176.281C31.2183 176.273 31.3313 176.287 31.4393 176.322C31.5463 176.357 31.6453 176.414 31.7313 176.488C31.8163 176.562 31.8863 176.652 31.9373 176.753C32.3783 177.627 33.2313 179.413 33.7673 181.093C33.8313 181.297 33.8153 181.519 33.7233 181.712C33.6323 181.906 33.4703 182.058 33.2713 182.137C32.1863 182.577 30.0403 183.372 28.1353 183.635C27.9813 183.657 27.8253 183.636 27.6823 183.575C27.5403 183.515 27.4163 183.416 27.3253 183.291C26.5063 182.171 24.1963 179.032 23.4053 178.251C22.6733 177.521 21.3213 177.796 20.7123 177.971C20.5983 178.004 20.4783 178.013 20.3613 177.998C20.2433 177.982 20.1303 177.943 20.0293 177.881C19.4113 177.509 18.3333 176.582 19.3193 175.013C19.4353 174.822 19.4723 174.595 19.4223 174.377C19.3733 174.16 19.2413 173.971 19.0543 173.849C18.3643 173.396 17.6163 172.544 18.3293 171.164C19.0423 169.784 20.3413 169.642 21.2193 169.75C21.4093 169.776 21.6033 169.74 21.7713 169.646C21.9393 169.553 22.0733 169.408 22.1513 169.232C22.1883 169.141 22.2483 169.06 22.3253 168.999C22.4033 168.938 22.4953 168.898 22.5923 168.883C22.7013 168.865 22.8063 168.824 22.8993 168.764C22.9923 168.705 23.0723 168.627 23.1353 168.535C23.1983 168.444 23.2413 168.341 23.2643 168.233C23.2863 168.124 23.2863 168.012 23.2643 167.903C23.1103 167.112 23.2263 166.083 24.4883 165.393C26.8023 164.121 28.8283 166.194 29.3443 167.944C29.8613 169.694 27.2723 170.93 25.6453 171.137C24.4603 171.293 23.8003 172.598 23.5363 173.279Z" fill="#5B6475"/>
<path d="M24.4171 179.886C24.4171 179.886 23.3882 176.876 22.0702 176.987C20.7532 177.097 19.7151 178.409 21.3481 179.885C23.3791 181.719 24.4171 179.886 24.4171 179.886Z" fill="#FFD89D"/>
<path d="M13.3129 202.815C11.5769 198.064 12.207 192.327 12.213 192.269L12.6919 192.324C12.6849 192.38 12.0689 198.008 13.7659 202.65L13.3129 202.815Z" fill="#015FCD"/>
<path d="M25.3534 239.066C25.3004 239.065 25.2484 239.048 25.2064 239.015C25.1634 238.982 25.1334 238.937 25.1194 238.885C24.5904 236.842 20.6244 234.597 20.5834 234.574C20.5284 234.543 20.4874 234.491 20.4704 234.429C20.4524 234.368 20.4604 234.302 20.4924 234.246C20.5234 234.19 20.5754 234.149 20.6374 234.132C20.6994 234.115 20.7644 234.123 20.8204 234.154C20.9914 234.249 25.0054 236.523 25.5804 238.765C25.5884 238.795 25.5904 238.827 25.5864 238.858C25.5814 238.889 25.5714 238.919 25.5554 238.947C25.5394 238.974 25.5184 238.998 25.4924 239.017C25.4674 239.036 25.4384 239.049 25.4084 239.057C25.3904 239.062 25.3724 239.065 25.3534 239.066Z" fill="#7B818D"/>
<path d="M58.2352 197.217C49.2482 198.565 43.3952 192.895 39.0282 189.457C33.2662 184.915 28.7822 187.124 28.7822 187.124L34.9262 198.852C44.1032 207.504 53.5132 205.583 59.4452 202.772C59.5152 200.848 59.0992 198.937 58.2352 197.217Z" fill="#2187FF"/>
<path d="M70.8664 191.856L67.8854 193.459C64.3114 195.636 61.1134 196.786 58.2354 197.217C59.1004 198.939 59.5164 200.853 59.4454 202.779C63.2254 200.994 65.5884 198.859 65.5884 198.859C72.3404 194.827 70.8664 191.856 70.8664 191.856Z" fill="url(#paint1_linear_2189_6464)"/>
<path d="M79.6442 196.056C79.5482 195.742 79.3832 195.452 79.1612 195.21C78.9392 194.968 78.6651 194.779 78.3601 194.656L72.3122 192.224C72.3122 192.224 72.2201 191.449 73.5891 190.921C74.9581 190.393 74.6392 188.861 74.6392 188.861C74.6392 188.861 72.7692 189.714 70.0302 191.068C68.4632 191.842 67.5841 193.208 67.1191 194.236L68.6761 196.284C72.4031 197.404 76.1752 197.618 79.9792 197.173L79.6442 196.056Z" fill="url(#paint2_linear_2189_6464)"/>
<path d="M20.7241 289.154C20.7621 289.313 20.8431 289.458 20.9571 289.573C21.0721 289.689 21.2161 289.77 21.3741 289.809C23.7781 290.315 27.5981 289.909 29.2011 289.699C29.3761 289.669 29.5341 289.577 29.6481 289.441C29.7611 289.305 29.8221 289.133 29.8201 288.955C25.8921 289.403 22.4141 289.304 20.7241 289.154Z" fill="#7B818D"/>
<path d="M38.6914 289.112C36.4284 289.048 35.2584 288.782 34.6534 288.534C34.6534 288.759 34.6534 288.989 34.6534 289.226C34.6514 289.341 34.6944 289.452 34.7724 289.537C34.8504 289.621 34.9584 289.672 35.0734 289.679L47.4924 289.599C47.8894 289.599 48.1214 289.137 47.9494 288.773C46.3354 288.908 42.1864 289.213 38.6914 289.112Z" fill="#7B818D"/>
<path d="M76.9082 226.561C76.9082 226.561 72.0913 239.539 64.7653 237.947C64.7653 237.947 64.0102 242.362 65.2442 242.883C65.2442 242.883 76.2323 243.201 77.3243 228.11L76.9082 226.561Z" fill="#FFD89D"/>
<path d="M76.7011 229.603C76.7221 229.828 75.8851 229.984 75.6191 229.025C75.6921 228.605 75.8221 226.785 76.1411 226.505C77.8421 224.995 80.8731 223.299 80.8731 223.299C80.9711 223.427 81.0151 223.589 80.9951 223.749C80.9761 223.909 80.8942 224.056 80.7682 224.157L79.2552 225.179C79.4132 225.701 79.6431 226.159 79.6751 226.761C79.6901 227.216 79.5301 227.659 79.2271 227.998C78.9261 228.343 78.5272 228.787 78.1562 229.118C77.9662 229.304 77.7362 229.444 77.4842 229.528C77.2322 229.612 76.9651 229.637 76.7011 229.603Z" fill="#FFD89D"/>
<path fill-rule="evenodd" clip-rule="evenodd" d="M64.836 221.138C64.836 221.138 62.509 219.038 65.5 216.759C68.31 214.62 70.363 217.491 69.432 219.339C69.417 219.37 69.409 219.404 69.408 219.438C69.408 219.472 69.415 219.506 69.43 219.537C69.445 219.568 69.466 219.595 69.493 219.617C69.52 219.638 69.552 219.653 69.585 219.66C69.83 219.715 70.043 219.958 69.655 220.822C69.639 220.859 69.633 220.899 69.638 220.939C69.642 220.979 69.657 221.017 69.682 221.049C70.026 221.511 71.174 223.362 67.709 223.644C67.678 223.647 67.647 223.642 67.618 223.632C67.588 223.622 67.561 223.606 67.538 223.586L64.836 221.138Z" fill="#5B6475"/>
<path fill-rule="evenodd" clip-rule="evenodd" d="M52.6171 224.221C52.6171 224.221 52.3951 221.54 50.9601 220.667C49.5251 219.793 46.7401 219.05 45.5731 221.964C45.0131 223.355 45.2001 224.017 45.5461 224.328C45.6931 224.466 45.7881 224.651 45.8131 224.851C45.8391 225.052 45.7941 225.254 45.6861 225.425C45.4511 225.845 45.4192 226.369 46.1312 226.842C46.2332 226.907 46.3201 226.992 46.3881 227.092C46.4561 227.191 46.5042 227.303 46.5282 227.422C46.7142 228.393 47.7082 230.726 53.0232 228.176L52.6171 224.221Z" fill="#5B6475"/>
<path fill-rule="evenodd" clip-rule="evenodd" d="M58.7633 219.401C57.7183 218.953 55.5013 218.497 53.7783 221.511C53.6583 221.721 53.4833 221.895 53.2713 222.012C52.2453 222.572 49.2733 224.636 51.9793 228.35C52.1033 228.52 52.1843 228.717 52.2143 228.925C52.3053 229.554 52.6053 230.948 53.5053 231.293C53.7743 231.395 54.0003 231.584 54.1493 231.83C54.7543 232.826 56.4793 234.921 59.3813 232.733C59.5293 232.622 59.6993 232.543 59.8813 232.502L63.8893 231.62C64.1023 231.573 64.3233 231.581 64.5333 231.643C65.0233 231.783 66.0133 231.911 66.3813 230.759C66.4563 230.525 66.5953 230.316 66.7833 230.156C67.4553 229.585 68.8833 228.035 67.8023 225.863C67.6813 225.621 67.6373 225.346 67.6793 225.078C67.8063 224.265 67.8723 222.459 66.1833 221.68C65.9293 221.565 65.7203 221.368 65.5903 221.12C65.0303 220.037 63.1923 217.26 59.9593 219.3C59.7833 219.413 59.5823 219.481 59.3743 219.498C59.1653 219.516 58.9563 219.482 58.7633 219.401Z" fill="#5B6475"/>
<path fill-rule="evenodd" clip-rule="evenodd" d="M64.208 283.097L63.624 283.772L64.024 285.235C64.076 285.423 64.179 285.592 64.323 285.724C64.467 285.856 64.644 285.944 64.836 285.979C66.138 286.217 69.092 286.648 70.613 285.995C70.613 285.995 71.084 282.828 65.853 283.772L64.208 283.097Z" fill="#A8B2BC"/>
<path fill-rule="evenodd" clip-rule="evenodd" d="M55.0741 284.78L54.7651 285.541L54.8911 288.287C54.9071 288.482 54.9901 288.666 55.1271 288.807C55.2631 288.948 55.4441 289.038 55.6391 289.061C56.3621 289.18 57.0961 289.219 57.8281 289.177C58.4411 289.131 58.8251 288.554 58.5861 288.04L57.6621 286.059C57.5931 285.913 57.4961 285.781 57.3761 285.673C57.2551 285.565 57.1151 285.482 56.9621 285.429L55.0741 284.78Z" fill="#A8B2BC"/>
<path fill-rule="evenodd" clip-rule="evenodd" d="M57.7322 231.267L57.1372 237.174C57.1372 237.174 60.3482 238.262 62.4582 237.034L61.8862 231.104L57.7322 231.267Z" fill="#FFD89D"/>
<path fill-rule="evenodd" clip-rule="evenodd" d="M52.584 263.601C52.584 263.601 54.108 280.59 55.115 285.788C55.115 285.788 55.867 286.336 56.994 285.628L58.361 262.961L52.584 263.601Z" fill="#FFD89D"/>
<path fill-rule="evenodd" clip-rule="evenodd" d="M59.355 264.621L63.53 283.646C63.53 283.646 64.666 284.823 66.143 283.646L65.423 263.647L59.355 264.621Z" fill="#FFD89D"/>
<path fill-rule="evenodd" clip-rule="evenodd" d="M54.0671 237.621L53.0231 237.737C51.0011 239.905 47.2911 254.804 45.9531 257.972L40.5081 257.083C40.4601 257.074 40.4101 257.077 40.3631 257.094C40.3171 257.11 40.2761 257.139 40.2451 257.177C40.2131 257.215 40.1931 257.26 40.1861 257.309C40.1781 257.358 40.1841 257.408 40.2031 257.453C40.4451 258.044 41.3521 259.749 44.8861 259.749C46.5371 259.749 43.9591 261.03 44.9481 261.47C44.9481 261.47 47.1161 260.688 47.1201 259.314C47.1201 259.314 53.3411 245.147 54.6191 243.655C55.8971 242.162 54.0671 237.621 54.0671 237.621Z" fill="#FFD89D"/>
<path fill-rule="evenodd" clip-rule="evenodd" d="M53.0303 237.735C53.0303 237.735 58.5633 235.684 65.4713 237.807C65.4713 237.807 66.2453 243.036 65.8463 245.525L53.9463 245.956L53.0303 237.735Z" fill="#2187FF"/>
<path fill-rule="evenodd" clip-rule="evenodd" d="M65.6881 247.159C65.6881 247.159 69.4921 259.37 70.0561 267.507C70.0701 267.707 70.0041 267.904 69.8731 268.055C69.7421 268.207 69.5561 268.301 69.3561 268.316C68.5651 268.372 67.1681 268.568 65.2721 269.199C62.1921 270.223 59.6501 269.885 57.3511 269.224C55.5461 268.706 51.0341 268.254 49.1761 268.082C49.0721 268.073 48.9701 268.041 48.8781 267.991C48.7861 267.94 48.7061 267.871 48.6431 267.787C48.5791 267.704 48.5331 267.608 48.5091 267.506C48.4841 267.404 48.4811 267.298 48.5001 267.194C49.0391 264.184 51.0911 253.499 54.2051 246.238L65.6881 247.159Z" fill="#2187FF"/>
<path fill-rule="evenodd" clip-rule="evenodd" d="M65.885 245.244L65.683 247.159C65.683 247.159 62.024 247.173 53.937 246.901L53.895 245.515C53.895 245.515 62.852 245.69 65.885 245.244Z" fill="#015FCD"/>
<path fill-rule="evenodd" clip-rule="evenodd" d="M65.859 225.543C66.777 229.093 66.51 233.174 62.332 234.083C59.441 234.716 56.403 231.771 55.485 228.22C54.566 224.668 56.138 221.964 59.004 221.22C61.87 220.475 64.94 221.991 65.859 225.543Z" fill="#FFD89D"/>
<path fill-rule="evenodd" clip-rule="evenodd" d="M65.5482 226.638C65.5482 226.638 65.6882 224.49 66.7552 225.152C67.8222 225.814 66.3422 228.389 65.6792 228.539C65.0172 228.689 65.5482 226.638 65.5482 226.638Z" fill="#FFD89D"/>
<path fill-rule="evenodd" clip-rule="evenodd" d="M56.3831 229.114C56.3831 229.114 56.0631 227.476 54.9021 228.234C53.7411 228.991 55.9561 231.666 57.3201 231.071L56.3831 229.114Z" fill="#FFD89D"/>
<path d="M77.542 228.866C77.746 228.369 78.333 227.018 78.596 226.744C78.785 226.545 78.876 226.363 78.862 226.184C78.854 226.104 78.829 226.026 78.788 225.957C78.747 225.887 78.691 225.827 78.625 225.781L78.551 225.719L77.101 226.495L76.522 227.401L76.766 227.556L77.304 226.716L78.51 226.071C78.548 226.108 78.57 226.158 78.573 226.211C78.557 226.344 78.491 226.466 78.387 226.552C78.039 226.915 77.353 228.577 77.267 228.764L77.542 228.866Z" fill="#FFD89D"/>
<path fill-rule="evenodd" clip-rule="evenodd" d="M54.665 227.812C54.665 227.812 57.988 231.409 59.714 223.945C59.714 223.945 61.436 226.174 62.221 224.203C62.221 224.203 65.651 225.378 66.029 223.936C66.407 222.494 61.394 218.582 57.362 221.389C53.33 224.196 54.665 227.812 54.665 227.812Z" fill="#5B6475"/>
</g>
</g>
<defs>
<linearGradient id="paint0_linear_2189_6464" x1="188.065" y1="300.556" x2="198.267" y2="204.202" gradientUnits="userSpaceOnUse">
<stop stop-color="#5C5E61"/>
<stop offset="1" stop-color="#5C5E61"/>
</linearGradient>
<linearGradient id="paint1_linear_2189_6464" x1="-20407.2" y1="15681.7" x2="-18647.2" y2="14347.3" gradientUnits="userSpaceOnUse">
<stop stop-color="white"/>
<stop offset="1" stop-color="#EFEFF4"/>
</linearGradient>
<linearGradient id="paint2_linear_2189_6464" x1="-20360.5" y1="12472.8" x2="-18933.4" y2="11077.3" gradientUnits="userSpaceOnUse">
<stop stop-color="white"/>
<stop offset="1" stop-color="#EFEFF4"/>
</linearGradient>
</defs>
</svg>
